<svg xmlns="http://www.w3.org/2000/svg" width="151" height="141" fill="none" viewBox="0 0 151 141"><g fill="#000" clip-path="url(#a)"><path d="M64.462 122.019c-2.06 0-3.532 1.356-3.532 3.254v3.525h33.26v-3.525c0-1.898-1.472-3.254-3.532-3.254zM51.51 71.042h-7.947L30.318 37.148H67.7l.294-6.779H15.012l6.18 6.779h3.827L11.774 71.042H3.826C4.71 82.431 15.012 91.38 27.67 91.38s22.958-8.95 23.84-20.338m-35.91 0 12.069-30.64 12.068 30.64zm126.275-57.484c4.121 0 7.359-2.983 7.359-6.78 0-3.795-3.238-6.778-7.359-6.778s-7.358 2.983-7.358 6.779 3.237 6.779 7.358 6.779M11.185 116.867C5.004 116.867 0 121.477 0 127.171s5.004 10.304 11.185 10.304 11.185-4.61 11.185-10.304-5.004-10.304-11.185-10.304m57.104 1.627h18.25l-3.533-88.125H71.82zm74.764-47.452-13.246-33.894h3.826l6.182-6.779H86.832l.295 6.779h37.382l-13.54 33.894h-7.948c.883 11.389 11.186 20.337 23.842 20.337 12.657 0 22.96-8.948 23.843-20.337zm-27.963 0 12.068-30.64 12.068 30.64zM109.497 0c1.472 0 2.649 1.085 2.649 2.44 0 1.356-1.177 2.44-2.649 2.44s-2.649-1.084-2.649-2.44S108.025 0 109.497 0m38.854 115.24c1.472 0 2.649 1.085 2.649 2.441s-1.177 2.44-2.649 2.44-2.649-1.084-2.649-2.44 1.177-2.441 2.649-2.441M98.606 91.379c1.472 0 2.649 1.084 2.649 2.44s-1.177 2.44-2.649 2.44-2.649-1.084-2.649-2.44 1.177-2.44 2.65-2.44"/><path d="M50.628 54.23c1.471 0 2.649 1.085 2.649 2.441s-1.178 2.44-2.65 2.44-2.649-1.084-2.649-2.44 1.178-2.44 2.65-2.44m-5.298 57.484c1.471 0 2.649 1.085 2.649 2.441s-1.178 2.44-2.65 2.44-2.649-1.084-2.649-2.44 1.178-2.441 2.65-2.441M69.172 10.033c1.471 0 2.649 1.084 2.649 2.44s-1.178 2.44-2.65 2.44-2.649-1.084-2.649-2.44 1.178-2.44 2.65-2.44M8.536 8.406c1.472 0 2.65 1.084 2.65 2.44s-1.178 2.44-2.65 2.44-2.649-1.084-2.649-2.44 1.177-2.44 2.65-2.44m105.67 129.34h-7.359v-2.44c0-1.898-1.472-3.254-3.532-3.254H51.511c-2.06 0-3.533 1.356-3.533 3.254v2.44H40.62c-.883 0-1.766.814-1.766 1.627S39.737 141 40.62 141h73.587c.883 0 1.766-.813 1.766-1.627 0-.813-.883-1.627-1.766-1.627"/></g><defs><clipPath id="a"><path fill="#fff" d="M0 0h151v141H0z"/></clipPath></defs></svg>