<svg xmlns="http://www.w3.org/2000/svg" width="151" height="141" fill="none" viewBox="0 0 151 141"><g fill="#000" clip-path="url(#a)"><path d="M9.953 130.991 34.693 141l4.266-8.729-24.74-10.24zM91.464 10.025 71.356 28.127l15.081 13.576L106.545 23.6zM17.63 52.913c0-4.351-3.98-7.935-8.815-7.935S0 48.562 0 52.913c0 4.352 3.981 7.936 8.815 7.936 4.835 0 8.816-3.584 8.816-7.936m108.06 37.119q-1.706 0-3.412.768l-14.788 5.888c-11.374 4.608-24.455 4.608-35.83 0l-2.844-1.024c-19.337-7.68-41.802.256-50.049 17.407l-3.128 6.144 24.74 10.24 1.99-3.84c3.129-6.144 11.091-9.216 18.2-6.4 10.522 4.096 22.466 4.096 32.987 0l35.546-14.591q2.987-1.152 4.266-3.84c1.137-2.304.853-5.12-.569-7.168-1.422-2.304-4.265-3.584-7.109-3.584M46.068 67.787v2.815h35.546v-2.815c0-1.025-1.138-2.048-2.275-2.048H48.343c-1.422 0-2.275 1.023-2.275 2.047M81.33 50.891c1.421 1.28 3.696 1.28 5.118 0s1.422-3.328 0-4.608l-20.19-18.175c-1.422-1.28-3.697-1.28-5.119 0s-1.422 3.328 0 4.608zM92.705 6.835l18.768 16.895c.569.512 1.422 1.024 2.559 1.024 1.991 0 3.697-1.536 3.697-3.328 0-.767-.284-1.535-1.137-2.303L96.402.973c-1.422-1.28-3.698-1.28-5.12 0-1.421 1.28-1.421 3.328 0 4.608.285 0 1.422 1.28 1.422 1.28zm52.892 11.033c-2.844 0-5.403 2.048-5.403 4.864s2.275 4.864 5.403 4.864S151 25.548 151 22.732s-2.559-4.864-5.403-4.864M96.401 37.324l26.731 24.063c1.422 1.28 3.697 1.28 5.119 0s1.422-3.328 0-4.608L101.52 32.716zm49.765 71.908c1.422 0 2.559 1.023 2.559 2.303s-1.137 2.304-2.559 2.304-2.56-1.024-2.56-2.304 1.138-2.303 2.56-2.303m-5.119-64.229c1.422 0 2.559 1.024 2.559 2.304s-1.137 2.304-2.559 2.304-2.559-1.024-2.559-2.304 1.137-2.304 2.559-2.304M66.542 5.069c1.422 0 2.56 1.024 2.56 2.304s-1.138 2.304-2.56 2.304-2.56-1.024-2.56-2.304 1.138-2.304 2.56-2.304M5.972 20.915c1.422 0 2.56 1.024 2.56 2.303 0 1.28-1.138 2.304-2.56 2.304s-2.56-1.024-2.56-2.304 1.138-2.303 2.56-2.303m39.243 17.689c1.421 0 2.559 1.023 2.559 2.303s-1.138 2.304-2.56 2.304c-1.421 0-2.559-1.024-2.559-2.304s1.138-2.303 2.56-2.303M5.972 89.802c1.422 0 2.56 1.024 2.56 2.304s-1.138 2.304-2.56 2.304-2.56-1.024-2.56-2.304 1.138-2.304 2.56-2.304m103.226-20.735c1.421 0 2.559 1.023 2.559 2.303s-1.138 2.304-2.559 2.304-2.56-1.024-2.56-2.304 1.138-2.303 2.56-2.303m8.531 57.853c1.422 0 2.559 1.024 2.559 2.304s-1.137 2.304-2.559 2.304-2.56-1.024-2.56-2.304 1.138-2.304 2.56-2.304M31.85 80.842h63.982c.853 0 1.707-.768 1.707-1.536s-.854-1.536-1.707-1.536h-7.109v-1.792c0-1.024-1.137-2.048-2.275-2.048H41.234c-1.138 0-2.276 1.024-2.276 2.048v1.792H31.85c-.853 0-1.706.768-1.706 1.536s.569 1.536 1.706 1.536"/></g><defs><clipPath id="a"><path fill="#fff" d="M0 0h151v141H0z"/></clipPath></defs></svg>