<svg xmlns="http://www.w3.org/2000/svg" width="151" height="141" fill="none" viewBox="0 0 151 141"><g fill="#000" clip-path="url(#a)"><path d="M109.473 52.212a2.19 2.19 0 0 0 3.072 0l1.955-1.955a2.19 2.19 0 0 0 0-3.07L82.942 15.914a2.19 2.19 0 0 0-3.071 0l-1.955 1.675a2.19 2.19 0 0 0 0 3.071c3.91 3.91 28.206 28.48 31.557 31.55m-77.916 73.154h47.197v-3.909c0-4.467-3.63-8.376-8.379-8.376H39.657c-4.468 0-8.378 3.63-8.378 8.376v3.909zm110.032-60.867c2.792 0 5.306-2.234 5.306-5.305s-2.514-5.305-5.306-5.305-5.306 2.234-5.306 5.305 2.513 5.305 5.306 5.305M19.549 27.642c4.747 0 8.657-3.91 8.657-8.656s-3.91-8.655-8.657-8.655c-4.748 0-8.658 3.909-8.658 8.655 0 4.747 3.63 8.656 8.658 8.656M118.41 38.81c1.396-1.396 1.396-3.35 0-4.747L95.789 11.447c-1.397-1.395-3.351-1.395-4.748 0l-3.91 3.91 27.09 27.083zm-13.685 13.681L77.636 25.408 55.295 47.745l27.089 27.083zM64.232 88.509c.558.558 1.396.838 2.234.838s1.675-.28 2.234-.838l3.91-3.909-27.09-27.083-3.909 3.909c-1.396 1.396-1.396 3.35 0 4.746zm84.897 20.661-48.034-48.023-9.774 9.772 48.034 48.024c2.792 2.792 7.261 2.792 9.774 0 2.513-2.513 2.513-6.981 0-9.773M77.357 84.32a2.19 2.19 0 0 0 3.072 0l1.955-1.954a2.19 2.19 0 0 0 0-3.071l-31.557-31.55a2.19 2.19 0 0 0-3.072 0L45.8 49.699a2.19 2.19 0 0 0 0 3.071c7.54 7.818 23.738 24.012 31.557 31.55M123.157 0a2.503 2.503 0 0 1 2.513 2.513 2.503 2.503 0 0 1-2.513 2.513 2.503 2.503 0 0 1-2.513-2.513A2.503 2.503 0 0 1 123.157 0m24.576 29.596a2.503 2.503 0 0 1 2.513 2.513 2.503 2.503 0 0 1-2.513 2.513 2.503 2.503 0 0 1-2.514-2.513 2.503 2.503 0 0 1 2.514-2.513M9.774 52.212a2.503 2.503 0 0 1 2.514 2.513 2.503 2.503 0 0 1-2.514 2.513 2.503 2.503 0 0 1-2.513-2.513 2.503 2.503 0 0 1 2.513-2.513M30.72 88.788a2.503 2.503 0 0 1 2.513 2.513 2.503 2.503 0 0 1-2.513 2.513 2.503 2.503 0 0 1-2.514-2.513 2.503 2.503 0 0 1 2.514-2.513m82.104 24.57a2.503 2.503 0 0 1 2.514 2.513 2.503 2.503 0 0 1-2.514 2.513 2.503 2.503 0 0 1-2.513-2.513 2.503 2.503 0 0 1 2.513-2.513M48.313 12.006a2.503 2.503 0 0 1 2.514 2.513 2.503 2.503 0 0 1-2.514 2.513 2.503 2.503 0 0 1-2.513-2.513 2.503 2.503 0 0 1 2.513-2.513m74.006 125.643h-22.62v-.558c0-4.467-3.63-8.376-8.379-8.376H18.71c-4.467 0-8.377 3.63-8.377 8.376v.558H1.676c-.838 0-1.676.838-1.676 1.676C0 140.162.838 141 1.676 141H122.04c.838 0 1.676-.838 1.676-1.675s-.28-1.676-1.397-1.676"/></g><defs><clipPath id="a"><path fill="#fff" d="M0 0h151v141H0z"/></clipPath></defs></svg>