<svg xmlns="http://www.w3.org/2000/svg" width="84" height="92" fill="none" viewBox="0 0 84 92"><g filter="url(#a)"><path fill="#fff" d="M62.024 0q4.11 0 7.742 1.577t6.356 4.301 4.3 6.356Q82 15.867 82 19.976v39.952q0 4.11-1.577 7.79t-4.301 6.404-6.356 4.3Q66.134 80 62.024 80H21.976q-4.11 0-7.742-1.577t-6.356-4.301-4.3-6.404Q2 64.038 2 59.928V19.976q0-4.11 1.577-7.742t4.301-6.356 6.356-4.3Q17.867 0 21.976 0zM19.49 50.466l12.043-8.602-12.043-8.602zm45.018 3.728L49.885 43.68l-7.837 5.639-7.933-5.64L19.49 54.195v5.734h45.018zm0-20.932-12.043 8.602 12.043 8.602zm0-13.286H19.491v5.83l22.557 16.058 22.461-16.057z"/></g><defs><filter id="a" width="84" height="92" x="0" y="0" color-interpolation-filters="sRGB" filterUnits="userSpaceOnUse"><feFlood flood-opacity="0" result="BackgroundImageFix"/><feColorMatrix in="SourceAlpha" result="hardAlpha" values="0 0 0 0 0 0 0 0 0 0 0 0 0 0 0 0 0 0 127 0"/><feOffset dy="10"/><feGaussianBlur stdDeviation="1"/><feComposite in2="hardAlpha" operator="out"/><feColorMatrix values="0 0 0 0 0 0 0 0 0 0 0 0 0 0 0 0 0 0 0.25 0"/><feBlend in2="BackgroundImageFix" result="effect1_dropShadow_391_261"/><feBlend in="SourceGraphic" in2="effect1_dropShadow_391_261" result="shape"/></filter></defs></svg>