<svg xmlns="http://www.w3.org/2000/svg" width="53" height="54" fill="none" viewBox="0 0 53 54"><path fill="#012B09" d="M45.276 7.857a26.1 26.1 0 0 0-8.555-5.832A25.8 25.8 0 0 0 26.607 0C12.065 0 .213 12.015.213 26.757c0 4.725 1.225 9.315 3.516 13.365L0 54l13.982-3.726a26.1 26.1 0 0 0 12.625 3.267C41.148 53.541 53 41.526 53 26.784c0-7.155-2.743-13.878-7.724-18.927m-18.67 41.148c-3.941 0-7.803-1.08-11.185-3.105l-.8-.486-8.309 2.214 2.21-8.208-.532-.837a22.54 22.54 0 0 1-3.356-11.826C4.634 14.5 14.488 4.51 26.58 4.51c5.86 0 11.372 2.322 15.5 6.534a22.1 22.1 0 0 1 4.766 7.218 22.4 22.4 0 0 1 1.653 8.523c.053 12.258-9.801 22.221-21.893 22.221m12.039-16.632c-.666-.324-3.915-1.944-4.501-2.187-.613-.216-1.039-.324-1.492.324-.453.675-1.704 2.187-2.077 2.62-.373.458-.773.512-1.438.161-.666-.324-2.797-1.053-5.3-3.32-1.971-1.783-3.276-3.97-3.676-4.645-.373-.675-.053-1.026.293-1.377.293-.297.666-.783.986-1.16.32-.379.452-.676.665-1.108.214-.459.107-.837-.053-1.16-.16-.325-1.491-3.619-2.024-4.969-.532-1.296-1.092-1.134-1.491-1.16h-1.279c-.453 0-1.145.161-1.757.836-.586.675-2.29 2.295-2.29 5.59 0 3.293 2.37 6.48 2.689 6.911.32.46 4.66 7.21 11.266 10.098a32 32 0 0 0 3.755 1.404c1.572.513 3.01.432 4.155.27 1.278-.189 3.915-1.62 4.448-3.186.559-1.566.559-2.889.373-3.186s-.587-.432-1.252-.756"/></svg>