<svg xmlns="http://www.w3.org/2000/svg" width="53" height="54" fill="none" viewBox="0 0 53 54"><path fill="#012B09" d="M15.37 0h22.26C46.11 0 53 7.02 53 15.66v22.68c0 4.153-1.62 8.136-4.502 11.073A15.23 15.23 0 0 1 37.63 54H15.37C6.89 54 0 46.98 0 38.34V15.66c0-4.153 1.62-8.136 4.502-11.073A15.23 15.23 0 0 1 15.37 0m-.53 5.4a9.45 9.45 0 0 0-6.746 2.847A9.8 9.8 0 0 0 5.3 15.12v23.76c0 5.373 4.267 9.72 9.54 9.72h23.32a9.45 9.45 0 0 0 6.746-2.847A9.8 9.8 0 0 0 47.7 38.88V15.12c0-5.373-4.267-9.72-9.54-9.72zm25.573 4.05c.878 0 1.72.356 2.342.989.621.632.97 1.49.97 2.386a3.4 3.4 0 0 1-.97 2.387 3.28 3.28 0 0 1-2.343.988 3.28 3.28 0 0 1-2.342-.989 3.4 3.4 0 0 1-.97-2.386c0-.895.349-1.754.97-2.386a3.28 3.28 0 0 1 2.343-.989M26.5 13.5a13.13 13.13 0 0 1 9.37 3.954A13.63 13.63 0 0 1 39.75 27a13.63 13.63 0 0 1-3.88 9.546A13.13 13.13 0 0 1 26.5 40.5a13.13 13.13 0 0 1-9.37-3.954A13.63 13.63 0 0 1 13.25 27a13.63 13.63 0 0 1 3.88-9.546A13.13 13.13 0 0 1 26.5 13.5m0 5.4a7.88 7.88 0 0 0-5.622 2.372A8.18 8.18 0 0 0 18.55 27c0 2.148.838 4.209 2.328 5.728A7.88 7.88 0 0 0 26.5 35.1c2.108 0 4.13-.853 5.621-2.372A8.18 8.18 0 0 0 34.45 27a8.18 8.18 0 0 0-2.329-5.728A7.88 7.88 0 0 0 26.5 18.9"/></svg>