<svg xmlns="http://www.w3.org/2000/svg" width="84" height="92" fill="none" viewBox="0 0 84 92"><g filter="url(#a)"><path fill="#fff" d="M55.525 40.048q0-1.624-.478-3.537h4.014v19.307q0 .765-.526 1.243-.525.478-1.29.478H25.799q-.765 0-1.242-.478-.478-.478-.478-1.243V36.511h3.919q-.478 1.913-.478 3.537 0 2.867 1.099 5.448 1.1 2.58 3.01 4.444 1.912 1.864 4.493 2.963 2.58 1.1 5.448 1.1 2.867 0 5.448-1.1 2.58-1.099 4.444-2.963 1.864-1.863 2.963-4.444 1.1-2.58 1.1-5.448M41.57 48.745a9 9 0 0 1-3.441-.668 8.5 8.5 0 0 1-2.82-1.864 8.6 8.6 0 0 1-2.533-6.165q0-1.816.67-3.441a8.5 8.5 0 0 1 1.863-2.82 8.5 8.5 0 0 1 2.82-1.863 9 9 0 0 1 3.44-.67 8.6 8.6 0 0 1 6.166 2.533 8.5 8.5 0 0 1 1.864 2.82 9 9 0 0 1 .669 3.44 8.6 8.6 0 0 1-2.533 6.166 8.6 8.6 0 0 1-6.165 2.533m15.675-26.188q.765 0 1.29.478.526.477.526 1.242v5.257q0 .765-.526 1.243-.525.477-1.29.477h-5.257q-.765 0-1.242-.477-.479-.478-.478-1.243v-5.257q0-.765.477-1.242.479-.478 1.243-.478zM61.928 0q4.11 0 7.79 1.577t6.404 4.301 4.3 6.356Q82 15.867 82 19.976v39.952q0 4.11-1.577 7.79t-4.301 6.404-6.404 4.3Q66.038 80 61.928 80H21.976q-4.11 0-7.742-1.577t-6.356-4.301-4.3-6.404Q2 64.038 2 59.928V19.976q0-4.11 1.577-7.742t4.301-6.356 6.356-4.3Q17.867 0 21.976 0zm2.39 22.557q0-2.199-1.53-3.728-1.528-1.53-3.727-1.53H24.079q-2.199 0-3.728 1.53t-1.529 3.728v34.982q0 2.198 1.53 3.727 1.528 1.53 3.727 1.53H59.06q2.198 0 3.727-1.53 1.53-1.53 1.53-3.727z"/></g><defs><filter id="a" width="84" height="92" x="0" y="0" color-interpolation-filters="sRGB" filterUnits="userSpaceOnUse"><feFlood flood-opacity="0" result="BackgroundImageFix"/><feColorMatrix in="SourceAlpha" result="hardAlpha" values="0 0 0 0 0 0 0 0 0 0 0 0 0 0 0 0 0 0 127 0"/><feOffset dy="10"/><feGaussianBlur stdDeviation="1"/><feComposite in2="hardAlpha" operator="out"/><feColorMatrix values="0 0 0 0 0 0 0 0 0 0 0 0 0 0 0 0 0 0 0.25 0"/><feBlend in2="BackgroundImageFix" result="effect1_dropShadow_391_258"/><feBlend in="SourceGraphic" in2="effect1_dropShadow_391_258" result="shape"/></filter></defs></svg>