<svg xmlns="http://www.w3.org/2000/svg" width="84" height="92" fill="none" viewBox="0 0 84 92"><g filter="url(#a)"><path fill="#fff" d="M62.024 0q4.11 0 7.742 1.577t6.356 4.301 4.3 6.356Q82 15.867 82 19.976v39.952q0 4.11-1.577 7.79t-4.301 6.404-6.356 4.3Q66.134 80 62.024 80H21.976q-4.11 0-7.742-1.577t-6.356-4.301-4.3-6.404Q2 64.038 2 59.928V19.976q0-4.11 1.577-7.742t4.301-6.356 6.356-4.3Q17.867 0 21.976 0zM29.527 30.012H19.49v32.497h10.036zm-4.97-2.58q2.007 0 3.488-1.434 1.482-1.434 1.482-3.537t-1.482-3.536q-1.48-1.434-3.488-1.434-2.103 0-3.584 1.434-1.482 1.433-1.482 3.536t1.482 3.537q1.48 1.433 3.584 1.433M64.509 43.68q0-3.44-1.912-6.739-1.91-3.297-4.97-5.018-2.772-1.528-6.451-1.624-3.68-.096-6.643 1.242v-1.53H34.497V62.51h10.036V42.63l4.11-2.008q.764-.382 2.102-.382 1.34 0 2.008.478.573.286 1.147 1.242.573.957.573 1.72v18.83H64.51z"/></g><defs><filter id="a" width="84" height="92" x="0" y="0" color-interpolation-filters="sRGB" filterUnits="userSpaceOnUse"><feFlood flood-opacity="0" result="BackgroundImageFix"/><feColorMatrix in="SourceAlpha" result="hardAlpha" values="0 0 0 0 0 0 0 0 0 0 0 0 0 0 0 0 0 0 127 0"/><feOffset dy="10"/><feGaussianBlur stdDeviation="1"/><feComposite in2="hardAlpha" operator="out"/><feColorMatrix values="0 0 0 0 0 0 0 0 0 0 0 0 0 0 0 0 0 0 0.25 0"/><feBlend in2="BackgroundImageFix" result="effect1_dropShadow_391_263"/><feBlend in="SourceGraphic" in2="effect1_dropShadow_391_263" result="shape"/></filter></defs></svg>