<svg xmlns="http://www.w3.org/2000/svg" width="176" height="103" fill="none" viewBox="0 0 176 103"><path fill="#012B09" stroke="#012B09" stroke-miterlimit="10" d="M6.988 30.492v1.562h12.554v-1.562h-6.049V22.26h6.475c2.233 0 4.02-.518 5.369-1.563 1.34-1.045 2.02-2.578 2.02-4.618s-.67-3.613-2.02-4.648c-1.34-1.045-3.136-1.563-5.369-1.563H7.048v1.563h3.187v19.06zm6.505-18.958h5.4c1.603 0 2.872.375 3.805 1.136q1.4 1.142 1.4 3.41c0 1.512-.466 2.619-1.4 3.38s-2.202 1.136-3.806 1.136h-5.399v-9.073zm28.275 4.831c-1.096-.64-2.456-.965-4.08-.965-1.542 0-2.902.335-4.1.995s-2.121 1.624-2.801 2.892q-1.005 1.904-1.005 4.598c0 1.796.335 3.298 1.005 4.557q1.005 1.887 2.801 2.892c1.198.67 2.558 1.005 4.1 1.005 1.238 0 2.314-.193 3.217-.589.914-.386 1.665-.903 2.264-1.542a6.7 6.7 0 0 0 1.37-2.162 7 7 0 0 0 .507-2.405h-1.461a6.2 6.2 0 0 1-.68 2.08c-.366.69-.914 1.269-1.644 1.725-.731.457-1.655.68-2.781.68-1.715 0-3.065-.578-4.07-1.725q-1.492-1.72-1.492-4.78v-.162h12.189v-.488c0-1.491-.284-2.81-.842-3.948a6.25 6.25 0 0 0-2.487-2.669zm-8.758 5.612q.133-1.218.497-2.131c.396-.985.964-1.726 1.695-2.213.73-.487 1.573-.73 2.557-.73.985 0 1.715.213 2.345.649.629.436 1.106 1.035 1.43 1.806q.488 1.158.518 2.619zm14.005 8.515v1.563h8.779v-1.563h-2.7V9.879H47.25v1.563h2.73v19.05zm9.794 0v1.563h8.778v-1.563h-2.7V9.879h-5.855v1.563h2.73v19.05zm9.814 0v1.562h8.85v-1.562h-2.7V15.695h-5.826v1.563h2.74v13.234zm5.846-17.669c.355-.356.538-.843.538-1.452s-.183-1.055-.538-1.41c-.356-.356-.833-.538-1.411-.538s-1.056.182-1.41.537c-.356.356-.539.833-.539 1.411s.183 1.086.538 1.451c.355.356.832.538 1.411.538.578 0 1.055-.182 1.41-.537Zm5.084 19.231h13.914V25.55h-1.695v2.405c0 .934-.142 1.573-.437 1.939-.294.355-.903.538-1.836.538h-6.11l10.18-13.336v-1.4H78.262v6.21h1.654v-2.11q0-1.431.457-1.949.46-.518 1.817-.518h5.5L77.543 30.664v1.4zm17.304 0h13.914V25.55h-1.695v2.405c0 .934-.142 1.573-.436 1.939-.295.355-.904.538-1.837.538h-6.11l10.179-13.336v-1.4H95.567v6.21h1.655v-2.11q0-1.431.456-1.949c.305-.345.914-.518 1.817-.518h5.501l-10.15 13.336v1.4zm29.147-15.689c-1.096-.64-2.456-.965-4.079-.965-1.543 0-2.903.335-4.101.995s-2.121 1.624-2.801 2.892q-1.005 1.904-1.004 4.598c0 1.796.334 3.298 1.004 4.557q1.005 1.887 2.801 2.892c1.198.67 2.558 1.005 4.101 1.005 1.238 0 2.313-.193 3.217-.589.913-.386 1.664-.903 2.263-1.542a6.7 6.7 0 0 0 1.37-2.162 7 7 0 0 0 .507-2.405h-1.461a6.2 6.2 0 0 1-.68 2.08c-.365.69-.913 1.269-1.644 1.725s-1.654.68-2.781.68c-1.715 0-3.065-.578-4.07-1.725q-1.491-1.72-1.491-4.78v-.162h12.188v-.488c0-1.491-.284-2.81-.842-3.948a6.25 6.25 0 0 0-2.487-2.669zm-8.758 5.612q.135-1.218.497-2.131c.396-.985.964-1.726 1.695-2.213s1.573-.73 2.558-.73 1.715.213 2.344.649 1.106 1.035 1.431 1.806q.487 1.158.518 2.619zm18.724-10.86v1.3c0 .801-.111 1.46-.324 1.968a2 2 0 0 1-1.127 1.106c-.528.224-1.248.345-2.162.345h-1.461v1.533h4.1l-.223 9.428c-.091 1.756.264 3.126 1.045 4.11.782.985 1.959 1.482 3.542 1.482s2.7-.446 3.481-1.33c.782-.892 1.167-2.11 1.167-3.673v-5.5h-1.755v5.368q0 1.4-.518 2.131c-.345.487-.903.73-1.654.73s-1.33-.253-1.705-.75c-.376-.497-.569-1.208-.569-2.111v-9.885h7.186v-1.654h-7.186v-4.588h-1.816zm15.355 0v1.3c0 .801-.111 1.46-.324 1.968a2 2 0 0 1-1.127 1.106c-.528.224-1.248.345-2.162.345h-1.461v1.533h4.1l-.223 9.428c-.091 1.756.264 3.126 1.045 4.11.782.985 1.959 1.482 3.542 1.482s2.7-.446 3.481-1.33c.782-.892 1.167-2.11 1.167-3.673v-5.5h-1.755v5.368q0 1.4-.518 2.131c-.345.487-.903.73-1.654.73s-1.33-.253-1.705-.75c-.376-.497-.569-1.208-.569-2.111v-9.885h7.186v-1.654h-7.186v-4.588h-1.816zm16.503 1.706c.355-.356.537-.843.537-1.452s-.182-1.055-.537-1.41c-.356-.356-.833-.538-1.411-.538s-1.056.182-1.411.537-.538.833-.538 1.411.183 1.086.538 1.451c.355.356.832.538 1.411.538.578 0 1.055-.182 1.411-.537Zm-5.846 17.669v1.562h8.85v-1.562h-2.7V15.695h-5.825v1.563h2.74v13.234zM6.887 39.819h2.375l6.931 20.713h2.466L23.48 46.07l4.841 14.462h2.507l6.89-20.713h2.376v-1.563h-8.261v1.563h3.937l-5.602 16.928-5.49-16.928h3.968v-1.563h-9.621v1.563h2.364l1.208 3.592-4.465 13.437-5.521-17.03h3.48v-1.562H6.888zm37.347 5.784c-.619.63-.924 1.441-.924 2.436 0 .67.203 1.188.6 1.543.395.355.872.538 1.41.538s.995-.132 1.299-.406q.457-.411.457-1.127c0-.538-.213-.934-.65-1.167-.365-.203-.842-.294-1.38-.325a2.4 2.4 0 0 1 .507-.74c.416-.417.934-.721 1.574-.924a6.7 6.7 0 0 1 2.03-.305c1.217 0 2.12.264 2.73.782q.912.776.913 2.314v.06q0 .884-.396 1.401c-.264.345-.63.62-1.106.812s-1.056.376-1.726.558l-2.628.62q-1.431.365-2.558.943c-.75.386-1.33.893-1.735 1.512-.416.62-.62 1.4-.62 2.355 0 1.279.457 2.314 1.381 3.085.924.782 2.162 1.167 3.725 1.167 1.278 0 2.395-.253 3.328-.76.944-.508 1.665-1.31 2.182-2.396.183-.396.325-.852.437-1.33v.65c0 1.218.294 2.162.873 2.832.588.67 1.461 1.004 2.638 1.004 1.178 0 2.111-.345 2.7-1.045.589-.69.873-1.634.873-2.832V50.13h-1.654v6.86c0 .477-.122.873-.356 1.188-.243.314-.599.467-1.075.467-.477 0-.802-.153-1.046-.467-.243-.315-.355-.71-.355-1.188v-8.352c0-1.664-.508-2.903-1.512-3.704s-2.456-1.208-4.344-1.208c-1.126 0-2.192.162-3.187.467-.994.314-1.806.781-2.425 1.41zm8.535 7.612c0 1.3-.203 2.344-.619 3.136s-.954 1.37-1.624 1.725-1.41.538-2.212.538q-1.37 0-2.223-.73c-.578-.488-.862-1.168-.862-2.03 0-.589.121-1.076.375-1.482a3 3 0 0 1 1.086-1.005c.477-.274 1.066-.507 1.756-.7l1.532-.386c.822-.233 1.452-.487 1.888-.75q.654-.397.913-1.005v2.7zm9.145-13.396h2.73v19.06H61.68v1.562h8.79v-1.563h-2.7V38.256h-5.856zm9.164-1.563v1.532h2.67v20.653h2.892v-3.846s.03.101.05.152q.734 1.9 2.213 2.963c.984.7 2.212 1.056 3.694 1.056s2.649-.335 3.704-.995c1.066-.66 1.888-1.624 2.487-2.892.599-1.269.893-2.801.893-4.598s-.294-3.39-.893-4.648-1.421-2.212-2.487-2.882c-1.065-.66-2.283-.995-3.674-.995-1.491 0-2.72.345-3.673 1.046-.924.67-1.614 1.623-2.08 2.831v-9.367h-5.786zm6.211 10.362c.416-1.005.985-1.776 1.705-2.294.73-.518 1.573-.782 2.548-.782.974 0 1.786.264 2.506.782s1.269 1.289 1.675 2.294c.396 1.004.599 2.222.599 3.653s-.203 2.608-.6 3.613c-.405.995-.963 1.766-1.674 2.294-.71.528-1.552.791-2.506.791s-1.827-.263-2.548-.791c-.73-.528-1.299-1.3-1.705-2.294-.416-.994-.619-2.202-.619-3.613 0-1.41.203-2.649.62-3.653Zm16.258-.944q-1.005 1.902-1.004 4.597c0 1.796.334 3.298 1.004 4.557q1.005 1.887 2.801 2.892c1.198.67 2.558 1.005 4.1 1.005 1.239 0 2.314-.193 3.218-.589.913-.385 1.664-.903 2.263-1.542a6.7 6.7 0 0 0 1.37-2.162 7 7 0 0 0 .507-2.405h-1.461a6.2 6.2 0 0 1-.68 2.08c-.365.69-.913 1.269-1.644 1.726-.731.456-1.654.68-2.781.68-1.715 0-3.065-.579-4.07-1.726q-1.492-1.72-1.492-4.78v-.162h12.189v-.487c0-1.492-.284-2.812-.842-3.948a6.25 6.25 0 0 0-2.487-2.67c-1.096-.639-2.456-.964-4.079-.964-1.543 0-2.903.335-4.1.995-1.198.66-2.122 1.624-2.802 2.892zm2.72.548c.396-.985.964-1.726 1.695-2.213.73-.487 1.573-.73 2.557-.73.985 0 1.716.212 2.345.649.629.436 1.106 1.035 1.431 1.806q.487 1.158.517 2.619H95.77q.135-1.218.497-2.131Zm13.549 10.656v1.563h11.154v-1.563h-5.004v-8.292c0-1.258.193-2.303.568-3.136.376-.832.904-1.461 1.563-1.887a3.95 3.95 0 0 1 2.193-.63c.801 0 1.39.163 1.816.487.173.122.294.285.406.457-.578.02-1.035.142-1.36.376-.406.294-.599.72-.599 1.289q0 .684.488 1.126c.324.294.761.437 1.299.437.629 0 1.126-.214 1.481-.63.356-.426.538-.944.538-1.573 0-1.015-.345-1.806-1.025-2.375-.68-.568-1.593-.842-2.72-.842-1.126 0-2.04.244-2.862.73-.822.488-1.471 1.239-1.938 2.264a6 6 0 0 0-.142.386V44.1h-5.531v1.563h2.73v13.234h-3.055zM6.714 93.07c.528 0 1.147 0 1.847-.02.7-.011 1.41-.021 2.141-.021s1.441 0 2.142.02c.7.01 1.309.02 1.847.02v-1.197c-1.462 0-2.304-.264-2.537-.782-.234-.517-.153-1.33.253-2.435l1.695-4.81h7.866l1.593 4.77c.223.71.375 1.288.467 1.714.091.437.07.761-.071.985-.132.243-.396.396-.782.477-.385.07-.933.111-1.644.111v1.178c.528 0 1.188 0 1.959-.02.771-.021 1.583-.021 2.426-.021.842 0 1.623 0 2.405.02s1.44.02 1.979.02v-1.156a7 7 0 0 1-1.441-.234 2.46 2.46 0 0 1-1.015-.568c-.284-.244-.538-.579-.761-.995-.224-.416-.447-.964-.66-1.624L19.217 67.16h-1.299L10.51 88.442a34 34 0 0 1-.66 1.613 3.4 3.4 0 0 1-.7 1.046 2.26 2.26 0 0 1-.965.568c-.375.112-.862.162-1.461.162v1.259zM18.07 72.223l3.42 10.128h-6.9zm19.05 20.014c-.619 0-1.147-.121-1.573-.365a3.8 3.8 0 0 1-1.116-.964 5.5 5.5 0 0 1-.7-1.36 8 8 0 0 1-.366-1.563h-1.3l.468 4.415c.619.395 1.309.7 2.06.913a8.2 8.2 0 0 0 2.253.315c1.015 0 1.908-.142 2.659-.416s1.36-.65 1.827-1.117a4.5 4.5 0 0 0 1.076-1.573 4.8 4.8 0 0 0 .345-1.806q0-1.096-.366-1.827a4.1 4.1 0 0 0-.933-1.228 5.5 5.5 0 0 0-1.28-.893c-.476-.244-.943-.487-1.41-.73a43 43 0 0 1-1.522-.732 7.6 7.6 0 0 1-1.3-.801 3.5 3.5 0 0 1-.892-.965c-.213-.355-.335-.781-.335-1.299 0-.66.264-1.187.801-1.573q.792-.578 1.888-.578c.954 0 1.715.284 2.294.842.578.569.944 1.441 1.096 2.639h1.258l-.233-3.846c-.771-.417-1.482-.71-2.111-.863a8.2 8.2 0 0 0-1.938-.234c-.863 0-1.634.132-2.304.396s-1.248.61-1.705 1.025a4.7 4.7 0 0 0-1.066 1.492 4.2 4.2 0 0 0-.365 1.695c0 1.147.396 2.111 1.177 2.872q1.173 1.14 3.075 2.111c.467.244.893.477 1.3.71a6.6 6.6 0 0 1 1.065.751q.426.396.7.914c.173.345.264.75.264 1.208 0 .598-.203 1.146-.599 1.664s-1.126.761-2.192.761zm13.112 0q-.93 0-1.573-.365a3.8 3.8 0 0 1-1.116-.964 5.5 5.5 0 0 1-.7-1.36 8 8 0 0 1-.366-1.563h-1.299l.467 4.415c.62.395 1.31.7 2.06.913a8.2 8.2 0 0 0 2.253.315c1.015 0 1.908-.142 2.66-.416.75-.274 1.36-.65 1.826-1.117a4.5 4.5 0 0 0 1.076-1.573 4.8 4.8 0 0 0 .345-1.806q0-1.096-.365-1.827a4.1 4.1 0 0 0-.934-1.228 5.5 5.5 0 0 0-1.279-.893c-.477-.244-.944-.487-1.41-.73a43 43 0 0 1-1.523-.732 7.6 7.6 0 0 1-1.299-.801 3.5 3.5 0 0 1-.893-.965c-.213-.355-.335-.781-.335-1.299 0-.66.264-1.187.802-1.573q.792-.578 1.888-.578c.953 0 1.715.284 2.293.842.579.569.944 1.441 1.096 2.639h1.259l-.234-3.846c-.771-.417-1.481-.71-2.11-.863a8.2 8.2 0 0 0-1.94-.234c-.862 0-1.633.132-2.303.396-.68.264-1.248.61-1.705 1.025a4.7 4.7 0 0 0-1.065 1.492 4.2 4.2 0 0 0-.366 1.695c0 1.147.396 2.111 1.177 2.872q1.173 1.14 3.075 2.111c.467.244.894.477 1.3.71a6.6 6.6 0 0 1 1.065.751q.427.396.7.914c.173.345.264.75.264 1.208 0 .598-.203 1.146-.599 1.664s-1.126.761-2.192.761zm19.527-15.01a9.5 9.5 0 0 0-3.39-.599c-1.218 0-2.253.234-3.237.7a8.2 8.2 0 0 0-2.538 1.858c-.71.771-1.258 1.685-1.664 2.74a9.3 9.3 0 0 0-.599 3.299c0 1.278.223 2.445.66 3.48a7.9 7.9 0 0 0 1.827 2.66 7.9 7.9 0 0 0 2.71 1.674 9.3 9.3 0 0 0 3.267.579 7.4 7.4 0 0 0 3.167-.68 8.2 8.2 0 0 0 2.577-1.847c.731-.772 1.31-1.685 1.746-2.72a8.5 8.5 0 0 0 .65-3.319c0-1.279-.224-2.446-.66-3.481-.447-1.045-1.045-1.928-1.796-2.66a8.2 8.2 0 0 0-2.72-1.694zm1.573 10.525c-.193.822-.467 1.563-.843 2.222a5.3 5.3 0 0 1-1.522 1.695c-.619.447-1.36.66-2.222.66q-1.401 0-2.375-.761a5.65 5.65 0 0 1-1.574-1.929 8.4 8.4 0 0 1-.893-2.425c-.172-.863-.263-1.644-.263-2.355 0-.75.08-1.542.253-2.354a7.2 7.2 0 0 1 .843-2.253 5.2 5.2 0 0 1 1.492-1.665c.619-.446 1.37-.66 2.253-.66s1.684.254 2.344.751a6.3 6.3 0 0 1 1.614 1.848c.395.75.7 1.563.893 2.435s.294 1.695.294 2.477c0 .73-.091 1.502-.284 2.324zm9.885-7.44a5.15 5.15 0 0 1 1.43-1.593 3.3 3.3 0 0 1 1.99-.63c.862 0 1.543.133 2.03.397.487.263.842.608 1.065 1.025.264.527.538.883.812 1.045s.579.254.913.254c.396 0 .711-.153.934-.467q.335-.472.335-1.096c0-.487-.162-.893-.477-1.228a3.6 3.6 0 0 0-1.177-.802 7 7 0 0 0-1.522-.447 8.7 8.7 0 0 0-1.563-.152q-1.888 0-3.502.73c-1.076.488-1.989 1.138-2.74 1.96a9 9 0 0 0-1.806 2.973c-.437 1.137-.65 2.375-.65 3.705 0 .974.193 1.918.568 2.82a8.9 8.9 0 0 0 1.523 2.457q.96 1.065 2.222 1.705a5.75 5.75 0 0 0 2.69.65c1.37 0 2.649-.346 3.836-1.025 1.188-.69 2.243-1.624 3.166-2.822l-.933-.73a10 10 0 0 1-2.04 1.562c-.761.447-1.604.66-2.507.66-.974 0-1.816-.193-2.527-.568a5.4 5.4 0 0 1-1.796-1.523 6.5 6.5 0 0 1-1.076-2.192 9.4 9.4 0 0 1-.345-2.588c0-.619.091-1.299.284-2.04a6.8 6.8 0 0 1 .883-2.04zm13.528 11.225c-.254.223-.893.335-1.908.335v1.197q.899 0 1.857-.03c.64-.02 1.3-.03 1.959-.03.284 0 .588 0 .913.02s.64.02.944.02q.473.03.913.03h.914v-1.197q-1.598 0-1.98-.335c-.253-.223-.385-.781-.385-1.695v-9.296c0-.528.01-1.167.03-1.888.021-.72.072-1.39.133-1.989h-1.228a5.8 5.8 0 0 1-1.726 1.066 9.4 9.4 0 0 1-1.989.527v1.025c.883 0 1.431.153 1.624.447s.294.995.294 2.07v8.038c0 .903-.132 1.472-.385 1.695zm3.146-20.267c.406-.386.62-.873.62-1.441s-.203-1.025-.62-1.431c-.416-.406-.893-.6-1.44-.6a1.98 1.98 0 0 0-1.442.6 1.98 1.98 0 0 0-.578 1.43c0 .559.193 1.056.578 1.442.386.385.873.578 1.441.578a2 2 0 0 0 1.441-.578Zm8.688 6.556c-1.37.73-2.335 1.37-2.893 1.908s-.832 1.136-.832 1.776c0 .396.091.72.264.984.172.254.497.386.964.386s.832-.142 1.116-.436.417-.71.417-1.259c.02-.73.324-1.33.893-1.796.578-.467 1.258-.7 2.06-.7 1.086 0 1.847.273 2.273.832s.65 1.299.65 2.222v2.162q-1.858.562-3.502 1.096c-1.096.355-2.05.761-2.872 1.228s-1.471.995-1.959 1.593q-.73.9-.761 2.192c-.04 1.046.295 1.909 1.025 2.589.731.69 1.665 1.025 2.791 1.025 1.198 0 2.263-.234 3.207-.71.944-.478 1.644-.955 2.111-1.442.021.528.224 1.025.619 1.482.396.456.914.68 1.573.68a3.14 3.14 0 0 0 1.939-.65 20 20 0 0 0 1.614-1.34l-.234-1.096c-1.015.71-1.725 1.005-2.111.893q-.578-.166-.578-1.887v-8.962c0-1.258-.416-2.232-1.259-2.902-.842-.68-1.857-1.015-3.055-1.015-.619 0-1.167.091-1.644.284s-1.075.477-1.806.883zm4.912 11.783c-.447.487-1.015.943-1.705 1.38-.701.436-1.391.65-2.071.65-.801 0-1.4-.153-1.826-.468-.417-.314-.63-.943-.63-1.887s.487-1.695 1.462-2.304c.974-.609 2.567-1.187 4.78-1.746v4.385zM129.82 76.78a8.6 8.6 0 0 0-1.726-.152 7.8 7.8 0 0 0-3.369.751 8.7 8.7 0 0 0-2.74 2.01 8.6 8.6 0 0 0-1.858 2.892 9.1 9.1 0 0 0-.659 3.45c0 1.016.162 2 .477 2.944a7.8 7.8 0 0 0 1.38 2.507 6.8 6.8 0 0 0 2.162 1.755c.842.437 1.786.66 2.821.66a7.7 7.7 0 0 0 2.893-.548c.933-.365 1.644-.802 2.161-1.31v1.564c0 .203.122.355.366.467.243.111.527.08.862-.102.619-.284 1.33-.578 2.142-.883.812-.304 1.42-.517 1.847-.65v-.994c-.995.071-1.634.04-1.929-.081-.284-.122-.436-.518-.436-1.177V69.93c0-.508.02-1.137.051-1.878q.045-1.11.152-2.009h-1.228c-.528.467-1.147.842-1.847 1.147-.7.294-1.411.517-2.141.65v.994c.487 0 .872.02 1.156.05.285.031.508.133.66.285.132.152.223.396.264.71.041.325.071.761.071 1.31v6.14a6.4 6.4 0 0 0-1.522-.548zm1.522 12.504c0 .284-.142.568-.436.832s-.63.497-1.026.7a5.6 5.6 0 0 1-1.177.467c-.406.112-.72.162-.944.162-1.634 0-2.943-.588-3.917-1.755s-1.462-2.7-1.462-4.577c0-1.147.153-2.162.467-3.035s.721-1.614 1.228-2.212q.762-.868 1.705-1.31a4.5 4.5 0 0 1 1.908-.446q.536 0 1.178.152a4 4 0 0 1 1.177.477c.375.244.69.569.934.964q.365.594.365 1.492v8.099zm21.353-10.362a8.2 8.2 0 0 0-2.72-1.695c-1.035-.396-2.172-.599-3.39-.599s-2.253.234-3.237.7a8.2 8.2 0 0 0-2.537 1.858c-.711.771-1.259 1.685-1.665 2.74a9.3 9.3 0 0 0-.599 3.299c0 1.278.224 2.445.66 3.48a7.9 7.9 0 0 0 1.827 2.66 7.9 7.9 0 0 0 2.71 1.674 9.3 9.3 0 0 0 3.268.579 7.4 7.4 0 0 0 3.166-.68 8.2 8.2 0 0 0 2.578-1.847c.73-.772 1.309-1.685 1.745-2.72a8.5 8.5 0 0 0 .65-3.319c0-1.279-.223-2.446-.66-3.481a8.1 8.1 0 0 0-1.796-2.66zm-1.147 8.83c-.193.822-.467 1.563-.842 2.222a5.3 5.3 0 0 1-1.523 1.695c-.619.447-1.36.66-2.222.66q-1.401 0-2.375-.761a5.65 5.65 0 0 1-1.573-1.929 8.4 8.4 0 0 1-.893-2.425c-.173-.863-.264-1.644-.264-2.355 0-.75.081-1.542.254-2.354a7.2 7.2 0 0 1 .842-2.253 5.2 5.2 0 0 1 1.492-1.665c.619-.446 1.37-.66 2.253-.66s1.685.254 2.344.751a6.3 6.3 0 0 1 1.614 1.848c.396.75.7 1.563.893 2.435.203.873.294 1.695.294 2.477 0 .73-.091 1.502-.284 2.324zm11.103 4.485c-.619 0-1.147-.121-1.573-.365a3.8 3.8 0 0 1-1.116-.964 5.5 5.5 0 0 1-.7-1.36 8 8 0 0 1-.366-1.563h-1.299l.467 4.415c.619.395 1.309.7 2.06.913a8.2 8.2 0 0 0 2.253.315c1.015 0 1.908-.142 2.659-.416s1.36-.65 1.827-1.117a4.5 4.5 0 0 0 1.076-1.573 4.8 4.8 0 0 0 .345-1.806q0-1.096-.365-1.827a4.1 4.1 0 0 0-.934-1.228 5.5 5.5 0 0 0-1.279-.893c-.477-.244-.944-.487-1.411-.73a44 44 0 0 1-1.522-.732 7.7 7.7 0 0 1-1.299-.801 3.5 3.5 0 0 1-.893-.965c-.213-.355-.335-.781-.335-1.299 0-.66.264-1.187.802-1.573s1.157-.578 1.887-.578c.954 0 1.716.284 2.294.842.579.569.944 1.441 1.096 2.639h1.259l-.234-3.846c-.771-.417-1.482-.71-2.111-.863a8.2 8.2 0 0 0-1.938-.234c-.863 0-1.634.132-2.304.396s-1.248.61-1.705 1.025a4.7 4.7 0 0 0-1.066 1.492 4.2 4.2 0 0 0-.365 1.695c0 1.147.396 2.111 1.177 2.872q1.173 1.14 3.075 2.111c.467.244.894.477 1.299.71a7 7 0 0 1 1.066.751q.427.396.7.914c.173.345.264.75.264 1.208 0 .598-.203 1.146-.599 1.664q-.593.761-2.192.761zm-23.728-39.966a6.76 6.76 0 0 0-1.33 3.218c-.162 1.167.061 2.405.65 3.704.487 1.035 1.269 1.827 2.334 2.385s2.253.883 3.573.974c1.319.102 2.669-.02 4.079-.355a13.1 13.1 0 0 0 3.877-1.624 16.7 16.7 0 0 0 2.771 2.832c1.005.801 2.101 1.278 3.308 1.45 1.36.194 2.568-.03 3.654-.68 1.076-.649 1.898-1.603 2.466-2.881l-1.471-.579c-.68.985-1.421 1.644-2.233 1.98-.802.334-1.593.446-2.365.314-.619-.102-1.289-.508-1.989-1.218-.71-.72-1.411-1.583-2.111-2.608 1.604-1.32 2.913-2.629 3.948-3.928a26.7 26.7 0 0 0 2.71-4.06c.203-.355.375-.629.558-.801a1.24 1.24 0 0 1 .639-.355c.244-.061.558-.082.964-.061.386.02.924.05 1.604.091l.193-1.208-8.485-1.35-.203 1.27c.325.05.65.11.944.162.295.06.548.131.751.233a.9.9 0 0 1 .437.436c.091.183.111.437.04.741a8.6 8.6 0 0 1-.771 1.807 17 17 0 0 1-1.248 1.918q-.716.96-1.523 1.857a22 22 0 0 1-1.613 1.624 34 34 0 0 1-1.096-1.969c-.335-.66-.66-1.3-.944-1.939q-.502-1.065-1.005-2.344a26 26 0 0 1-.863-2.598 34 34 0 0 0 3.177-.964 12.3 12.3 0 0 0 2.486-1.208c.721-.456 1.279-.984 1.705-1.593.427-.599.711-1.33.843-2.172.111-.71.081-1.37-.112-1.98a4.4 4.4 0 0 0-.903-1.613c-.416-.467-.934-.852-1.563-1.177a7.2 7.2 0 0 0-2.121-.66c-.934-.152-1.797-.111-2.578.122a5.6 5.6 0 0 0-2.06 1.066 6.2 6.2 0 0 0-1.462 1.766 7.1 7.1 0 0 0-.791 2.192 9.4 9.4 0 0 0-.122 2.639q.122 1.384.487 2.74c-1.603.446-3.014 1.045-4.262 1.796-1.249.751-2.243 1.604-2.984 2.578zm9.55-9.438c.233-1.492.761-2.588 1.573-3.309.812-.73 1.675-1.014 2.608-.862.356.06.68.182 1.005.365.315.183.579.436.802.74.223.305.386.67.467 1.097.091.426.101.903.02 1.431-.193 1.197-.863 2.192-1.999 2.974-1.147.781-2.538 1.42-4.182 1.908a15 15 0 0 1-.365-2.345c-.051-.73-.03-1.4.061-2zm-4.729 8.038a12.4 12.4 0 0 1 2.852-1.4c.294.842.608 1.664.933 2.465q.487 1.203.914 2.193c.335.76.72 1.563 1.146 2.415.437.863.924 1.705 1.442 2.537-1.046.66-2.071 1.127-3.106 1.421-1.025.294-1.999.406-2.882.335-.893-.061-1.675-.284-2.355-.68s-1.167-.954-1.492-1.695c-.467-1.055-.649-2.05-.538-2.984a5.8 5.8 0 0 1 .985-2.578q.792-1.17 2.101-2.04zM174.789 1.02H1.071v2.8h173.718zm-.071 98.159H1v2.801h173.718z"/></svg>