<svg xmlns="http://www.w3.org/2000/svg" width="176" height="103" fill="none" viewBox="0 0 176 103"><path fill="#CBD4C9" stroke="#CBD4C9" stroke-miterlimit="10" d="M6.987 30.472v1.563h12.554v-1.563h-6.048v-8.23h6.475c2.232 0 4.019-.518 5.368-1.564 1.34-1.045 2.02-2.577 2.02-4.617s-.67-3.613-2.02-4.648c-1.34-1.046-3.136-1.563-5.368-1.563H7.048v1.563h3.187v19.06zm6.506-18.958h5.399c1.603 0 2.872.376 3.806 1.137q1.4 1.141 1.4 3.41c0 1.512-.467 2.618-1.4 3.38q-1.401 1.138-3.806 1.136h-5.4v-9.073zm28.275 4.831q-1.644-.962-4.08-.964c-1.542 0-2.902.335-4.1.994-1.197.66-2.121 1.624-2.801 2.893q-1.005 1.902-1.005 4.597c0 1.797.335 3.299 1.005 4.557q1.005 1.888 2.801 2.893c1.198.67 2.558 1.004 4.1 1.004 1.238 0 2.314-.193 3.217-.588.914-.386 1.665-.904 2.264-1.543a6.7 6.7 0 0 0 1.37-2.162 7 7 0 0 0 .507-2.405h-1.461a6.2 6.2 0 0 1-.68 2.08c-.366.69-.914 1.27-1.644 1.726-.731.457-1.655.68-2.781.68-1.715 0-3.065-.579-4.07-1.726q-1.492-1.72-1.492-4.78v-.162h12.189v-.487c0-1.492-.284-2.811-.842-3.948a6.25 6.25 0 0 0-2.487-2.67zm-8.758 5.612q.133-1.218.497-2.13c.396-.985.964-1.726 1.695-2.213.73-.488 1.573-.731 2.557-.731.985 0 1.715.213 2.345.65.629.436 1.106 1.035 1.43 1.806q.488 1.157.518 2.618zm14.006 8.515v1.563h8.778v-1.563h-2.7V9.86H47.25v1.563h2.73v19.05zm9.793 0v1.563h8.778v-1.563h-2.7V9.86h-5.855v1.563h2.73v19.05zm9.813 0v1.563h8.85v-1.563h-2.7V15.675h-5.825v1.563h2.74v13.234zm5.847-17.669c.355-.355.538-.842.538-1.451s-.183-1.056-.538-1.411-.833-.538-1.411-.538-1.056.183-1.41.538c-.356.355-.539.832-.539 1.41 0 .58.183 1.087.538 1.452.355.355.832.538 1.411.538.578 0 1.055-.183 1.41-.538Zm5.084 19.232h13.914V25.53h-1.695v2.405c0 .934-.142 1.573-.436 1.938-.294.355-.903.538-1.837.538h-6.11l10.18-13.335v-1.401H78.263v6.211h1.655v-2.11q0-1.432.456-1.95c.305-.344.914-.517 1.817-.517h5.5L77.544 30.645v1.4zm17.304 0h13.914V25.53h-1.695v2.405c0 .934-.142 1.573-.436 1.938-.295.355-.904.538-1.837.538h-6.11l10.179-13.335v-1.401H95.567v6.211h1.655v-2.11q0-1.432.456-1.95c.305-.344.914-.517 1.817-.517h5.501l-10.15 13.336v1.4zm29.147-15.69c-1.096-.64-2.456-.964-4.079-.964-1.543 0-2.903.335-4.101.994-1.197.66-2.121 1.624-2.801 2.893q-1.005 1.902-1.004 4.597c0 1.797.334 3.299 1.004 4.557q1.005 1.888 2.801 2.893c1.198.67 2.558 1.004 4.101 1.004 1.238 0 2.313-.193 3.217-.588.913-.386 1.664-.904 2.263-1.543a6.7 6.7 0 0 0 1.37-2.162 7 7 0 0 0 .507-2.405h-1.461a6.2 6.2 0 0 1-.68 2.08c-.365.69-.913 1.27-1.644 1.726-.731.457-1.654.68-2.781.68-1.715 0-3.065-.579-4.07-1.726q-1.491-1.72-1.491-4.78v-.162h12.188v-.487c0-1.492-.284-2.811-.842-3.948a6.25 6.25 0 0 0-2.487-2.67zm-8.758 5.612q.135-1.218.497-2.13c.396-.985.964-1.726 1.695-2.213s1.573-.731 2.558-.731 1.715.213 2.344.65c.629.436 1.106 1.035 1.431 1.806q.487 1.157.518 2.618zm18.725-10.859v1.299c0 .801-.112 1.461-.325 1.969a2 2 0 0 1-1.126 1.106c-.528.223-1.249.345-2.162.345h-1.462v1.532h4.101l-.224 9.429c-.091 1.755.264 3.126 1.046 4.11.781.984 1.958 1.482 3.542 1.482s2.699-.447 3.481-1.33c.781-.893 1.167-2.11 1.167-3.674v-5.5h-1.756v5.368q0 1.4-.518 2.132c-.345.487-.903.73-1.654.73s-1.329-.253-1.705-.75c-.375-.498-.568-1.208-.568-2.112V17.35h7.185v-1.654h-7.185v-4.587h-1.817zm15.354 0v1.299c0 .801-.111 1.461-.324 1.969a2 2 0 0 1-1.127 1.106c-.528.223-1.248.345-2.162.345h-1.461v1.532h4.1l-.223 9.429c-.091 1.755.264 3.126 1.045 4.11.782.984 1.959 1.482 3.542 1.482s2.7-.447 3.481-1.33c.782-.893 1.167-2.11 1.167-3.674v-5.5h-1.755v5.368q0 1.4-.518 2.132c-.345.487-.903.73-1.654.73s-1.33-.253-1.705-.75c-.376-.498-.569-1.208-.569-2.112V17.35h7.186v-1.654h-7.186v-4.587h-1.816zm16.503 1.705c.355-.355.538-.842.538-1.451s-.183-1.056-.538-1.411-.832-.538-1.411-.538c-.578 0-1.055.183-1.41.538-.356.355-.538.832-.538 1.41 0 .58.182 1.087.538 1.452.355.355.832.538 1.41.538.579 0 1.056-.183 1.411-.538Zm-5.847 17.669v1.563h8.85v-1.563h-2.699V15.675h-5.826v1.563h2.74v13.234zM6.887 39.799h2.375l6.931 20.714h2.466L23.48 46.05l4.841 14.462h2.507l6.89-20.714h2.376v-1.563h-8.261V39.8h3.937l-5.602 16.928-5.49-16.928h3.968v-1.563h-9.621V39.8h2.364l1.208 3.593-4.465 13.437-5.521-17.03h3.48v-1.563H6.888zm37.348 5.785c-.62.63-.924 1.441-.924 2.436 0 .67.203 1.187.599 1.542s.873.538 1.41.538c.538 0 .995-.132 1.3-.406q.456-.411.456-1.126c0-.538-.213-.934-.65-1.167-.365-.204-.842-.295-1.38-.325.122-.284.295-.528.508-.741.416-.416.934-.72 1.573-.924a6.7 6.7 0 0 1 2.03-.304c1.218 0 2.12.264 2.73.781q.913.778.913 2.314v.061q0 .884-.396 1.4c-.264.346-.629.62-1.106.813s-1.055.375-1.725.558l-2.629.619q-1.43.365-2.557.944c-.751.385-1.33.893-1.736 1.512-.416.619-.619 1.4-.619 2.354 0 1.28.457 2.314 1.38 3.086.924.781 2.162 1.167 3.725 1.167 1.279 0 2.395-.254 3.329-.761.944-.508 1.664-1.31 2.182-2.395.183-.396.325-.853.436-1.33v.65c0 1.217.295 2.161.873 2.831.589.67 1.462 1.005 2.639 1.005s2.11-.345 2.7-1.046c.588-.69.872-1.634.872-2.831V50.11h-1.654v6.86c0 .478-.122.874-.355 1.188-.244.315-.599.467-1.076.467s-.802-.152-1.045-.467c-.244-.314-.356-.71-.356-1.187v-8.353c0-1.664-.507-2.902-1.512-3.704s-2.456-1.208-4.343-1.208a10.9 10.9 0 0 0-3.187.467c-.995.315-1.807.782-2.426 1.41zm8.535 7.611c0 1.3-.203 2.345-.62 3.136-.416.792-.953 1.37-1.623 1.726s-1.41.538-2.213.538q-1.37 0-2.222-.731c-.579-.487-.863-1.167-.863-2.03 0-.589.122-1.076.376-1.482a3 3 0 0 1 1.086-1.004c.476-.274 1.065-.508 1.755-.7l1.533-.386q1.233-.353 1.888-.751.654-.396.913-1.005v2.7zm9.143-13.396h2.73v19.06H61.68v1.563h8.789v-1.563h-2.7V38.236h-5.856zm9.165-1.563v1.533h2.67v20.653h2.892v-3.847s.03.102.05.152c.488 1.269 1.228 2.253 2.213 2.964.984.7 2.212 1.055 3.694 1.055s2.649-.335 3.704-.994c1.066-.66 1.888-1.624 2.487-2.893s.893-2.8.893-4.597-.294-3.39-.893-4.648c-.599-1.259-1.421-2.213-2.487-2.883-1.065-.66-2.283-.994-3.674-.994-1.491 0-2.72.345-3.673 1.045-.924.67-1.614 1.624-2.08 2.832v-9.368h-5.786zm6.211 10.362c.416-1.005.985-1.776 1.705-2.294.73-.517 1.573-.781 2.548-.781.974 0 1.786.264 2.506.781.72.518 1.269 1.29 1.675 2.294.396 1.005.599 2.223.599 3.654 0 1.43-.203 2.608-.6 3.613-.405.994-.963 1.765-1.674 2.293-.71.528-1.552.792-2.506.792s-1.827-.264-2.548-.792c-.73-.528-1.299-1.299-1.705-2.293-.416-.995-.619-2.203-.619-3.613s.203-2.65.62-3.654Zm16.259-.944q-1.005 1.903-1.005 4.597c0 1.797.335 3.299 1.005 4.557q1.005 1.888 2.8 2.893c1.198.67 2.558 1.004 4.101 1.004 1.238 0 2.314-.192 3.217-.588.914-.386 1.665-.903 2.263-1.543a6.7 6.7 0 0 0 1.37-2.161 7 7 0 0 0 .508-2.406h-1.462a6.2 6.2 0 0 1-.68 2.08c-.365.69-.913 1.27-1.644 1.726-.73.457-1.654.68-2.78.68-1.716 0-3.065-.579-4.07-1.725q-1.492-1.72-1.492-4.78v-.163h12.189v-.487c0-1.492-.284-2.811-.843-3.948a6.25 6.25 0 0 0-2.486-2.669q-1.644-.962-4.08-.964c-1.543 0-2.903.335-4.1.994-1.198.66-2.121 1.624-2.801 2.893zm2.72.548c.395-.984.964-1.725 1.695-2.212.73-.488 1.573-.731 2.557-.731s1.715.213 2.344.65c.63.436 1.107 1.035 1.431 1.806q.488 1.157.518 2.618H95.77c.092-.812.254-1.522.498-2.131Zm13.548 10.656v1.563h11.154v-1.563h-5.003v-8.291q.002-1.888.568-3.136c.375-.832.903-1.462 1.563-1.888s1.39-.63 2.192-.63 1.39.163 1.817.488c.172.122.294.284.406.457-.579.02-1.036.142-1.36.375-.406.295-.599.72-.599 1.29q0 .684.487 1.126c.325.294.761.436 1.299.436.629 0 1.127-.213 1.482-.63.355-.425.538-.943.538-1.572 0-1.015-.345-1.807-1.025-2.375s-1.594-.843-2.72-.843-2.04.244-2.862.731-1.472 1.238-1.939 2.263c-.05.122-.101.264-.142.386v-2.963h-5.531v1.563h2.73v13.234h-3.055zM6.714 93.05c.528 0 1.147 0 1.847-.02.7-.01 1.41-.02 2.141-.02s1.441 0 2.142.02c.7.01 1.309.02 1.847.02v-1.198c-1.462 0-2.304-.264-2.537-.781-.234-.518-.153-1.33.253-2.436l1.695-4.81h7.866l1.593 4.77c.223.71.375 1.288.467 1.715.091.436.07.76-.071.984-.132.244-.396.396-.782.477-.385.071-.933.112-1.644.112v1.177c.528 0 1.188 0 1.959-.02s1.583-.02 2.426-.02c.842 0 1.623 0 2.405.02s1.44.02 1.979.02v-1.157a7 7 0 0 1-1.441-.233 2.46 2.46 0 0 1-1.015-.569c-.284-.243-.538-.578-.761-.994-.224-.416-.447-.964-.66-1.624L19.217 67.14h-1.299L10.51 88.422a34 34 0 0 1-.66 1.614 3.4 3.4 0 0 1-.7 1.045 2.26 2.26 0 0 1-.965.568c-.375.112-.862.163-1.461.163v1.258zM18.07 72.204l3.42 10.129h-6.9zm19.05 20.014q-.932 0-1.573-.365a3.8 3.8 0 0 1-1.117-.965 5.5 5.5 0 0 1-.7-1.36 8 8 0 0 1-.365-1.562h-1.3l.467 4.414c.62.396 1.31.7 2.06.914a8.2 8.2 0 0 0 2.254.314c1.014 0 1.908-.142 2.659-.416s1.36-.65 1.826-1.116a4.5 4.5 0 0 0 1.076-1.573 4.8 4.8 0 0 0 .345-1.807q0-1.096-.365-1.827a4.1 4.1 0 0 0-.934-1.228 5.5 5.5 0 0 0-1.279-.893c-.477-.243-.944-.487-1.41-.73a43 43 0 0 1-1.523-.731 7.6 7.6 0 0 1-1.299-.802 3.5 3.5 0 0 1-.893-.964c-.213-.355-.335-.781-.335-1.3 0-.659.264-1.187.802-1.572q.792-.579 1.888-.579c.954 0 1.715.285 2.293.843.579.568.944 1.44 1.096 2.638h1.259l-.233-3.846c-.772-.416-1.482-.71-2.111-.863a8.2 8.2 0 0 0-1.939-.233c-.863 0-1.634.132-2.304.396s-1.248.609-1.705 1.025a4.7 4.7 0 0 0-1.065 1.492 4.2 4.2 0 0 0-.366 1.694c0 1.147.396 2.111 1.178 2.873q1.171 1.138 3.075 2.11c.466.244.893.478 1.299.711s.75.477 1.065.751q.427.396.7.913c.173.345.264.751.264 1.208 0 .599-.202 1.147-.598 1.665-.396.517-1.127.76-2.192.76zm13.112 0q-.932 0-1.573-.365a3.8 3.8 0 0 1-1.117-.965 5.6 5.6 0 0 1-.7-1.36 8 8 0 0 1-.365-1.562h-1.3l.468 4.414c.619.396 1.309.7 2.06.914a8.2 8.2 0 0 0 2.253.314c1.015 0 1.908-.142 2.659-.416s1.36-.65 1.827-1.116a4.5 4.5 0 0 0 1.075-1.573 4.8 4.8 0 0 0 .346-1.807q0-1.096-.366-1.827a4.1 4.1 0 0 0-.934-1.228 5.5 5.5 0 0 0-1.278-.893c-.477-.243-.944-.487-1.411-.73a43 43 0 0 1-1.522-.731 7.6 7.6 0 0 1-1.3-.802 3.5 3.5 0 0 1-.893-.964c-.213-.355-.334-.781-.334-1.3 0-.659.264-1.187.801-1.572q.792-.579 1.888-.579c.954 0 1.715.285 2.294.843.578.568.944 1.44 1.096 2.638h1.258l-.233-3.846c-.771-.416-1.482-.71-2.111-.863a8.2 8.2 0 0 0-1.939-.233c-.862 0-1.634.132-2.303.396-.68.264-1.249.609-1.705 1.025a4.7 4.7 0 0 0-1.066 1.492 4.2 4.2 0 0 0-.365 1.694c0 1.147.395 2.111 1.177 2.873q1.171 1.138 3.075 2.11c.467.244.893.478 1.299.711s.751.477 1.066.751q.426.396.7.913c.172.345.264.751.264 1.208 0 .599-.203 1.147-.599 1.665-.396.517-1.126.76-2.192.76zm19.527-15.01a9.5 9.5 0 0 0-3.39-.6c-1.218 0-2.253.234-3.237.701a8.2 8.2 0 0 0-2.538 1.857c-.71.772-1.258 1.685-1.664 2.74a9.3 9.3 0 0 0-.599 3.299c0 1.279.223 2.446.66 3.481a7.9 7.9 0 0 0 1.827 2.659 7.9 7.9 0 0 0 2.71 1.675 9.3 9.3 0 0 0 3.267.578c1.147 0 2.182-.223 3.167-.68a8.2 8.2 0 0 0 2.577-1.847c.731-.771 1.31-1.685 1.746-2.72a8.5 8.5 0 0 0 .65-3.319c0-1.278-.224-2.445-.66-3.48-.447-1.046-1.045-1.929-1.796-2.66a8.2 8.2 0 0 0-2.72-1.694zm1.573 10.524c-.193.822-.467 1.563-.843 2.223a5.3 5.3 0 0 1-1.522 1.695c-.619.446-1.36.66-2.222.66q-1.401 0-2.375-.762a5.65 5.65 0 0 1-1.574-1.928 8.4 8.4 0 0 1-.893-2.426c-.172-.862-.263-1.644-.263-2.354 0-.751.08-1.543.253-2.355a7.2 7.2 0 0 1 .843-2.253 5.2 5.2 0 0 1 1.492-1.664c.619-.447 1.37-.66 2.253-.66s1.684.254 2.344.751a6.3 6.3 0 0 1 1.614 1.847c.395.751.7 1.563.893 2.436s.294 1.695.294 2.476c0 .73-.091 1.502-.284 2.324zm9.885-7.439a5.15 5.15 0 0 1 1.43-1.594 3.3 3.3 0 0 1 1.99-.629c.862 0 1.543.132 2.03.396s.842.609 1.065 1.025c.264.528.538.883.812 1.045.274.163.579.254.913.254.396 0 .711-.152.934-.467q.335-.472.335-1.096c0-.487-.162-.893-.477-1.228a3.6 3.6 0 0 0-1.177-.802 7 7 0 0 0-1.522-.446 8.7 8.7 0 0 0-1.563-.152q-1.888 0-3.502.73c-1.076.488-1.989 1.137-2.74 1.96a9 9 0 0 0-1.806 2.973c-.437 1.136-.65 2.374-.65 3.704 0 .974.193 1.918.568 2.821a8.9 8.9 0 0 0 1.523 2.456q.96 1.066 2.222 1.705a5.75 5.75 0 0 0 2.69.65c1.37 0 2.649-.345 3.836-1.025 1.188-.69 2.243-1.624 3.166-2.822l-.933-.73a10 10 0 0 1-2.04 1.563 4.9 4.9 0 0 1-2.507.66c-.974 0-1.816-.193-2.527-.569a5.4 5.4 0 0 1-1.796-1.522 6.5 6.5 0 0 1-1.076-2.192 9.4 9.4 0 0 1-.345-2.588c0-.62.091-1.3.284-2.04a6.8 6.8 0 0 1 .883-2.04zm13.528 11.224c-.254.224-.893.335-1.908.335v1.198q.899 0 1.857-.03c.64-.02 1.3-.031 1.959-.031.284 0 .588 0 .913.02s.64.02.944.02q.473.03.913.031h.914v-1.198q-1.598 0-1.98-.334c-.253-.224-.385-.782-.385-1.695v-9.297c0-.528.01-1.167.03-1.887.021-.721.072-1.39.133-1.99h-1.228a5.8 5.8 0 0 1-1.726 1.066 9.4 9.4 0 0 1-1.989.528v1.025c.883 0 1.431.152 1.624.446s.294.995.294 2.07v8.039c0 .903-.132 1.471-.385 1.695zm3.146-20.267c.406-.385.62-.873.62-1.44 0-.57-.203-1.026-.62-1.432-.416-.406-.893-.599-1.44-.599-.549 0-1.056.203-1.442.6a1.98 1.98 0 0 0-.578 1.43c0 .558.193 1.056.578 1.441.386.386.873.579 1.441.579a2 2 0 0 0 1.441-.579Zm8.687 6.556c-1.37.731-2.334 1.37-2.892 1.908s-.832 1.137-.832 1.776c0 .396.091.72.263.985.173.253.498.385.965.385s.832-.142 1.116-.436.416-.71.416-1.259c.02-.73.325-1.329.893-1.796.579-.467 1.259-.7 2.06-.7 1.086 0 1.847.274 2.274.832.426.558.649 1.3.649 2.223v2.161q-1.857.564-3.501 1.096c-1.096.356-2.05.762-2.872 1.229-.822.466-1.472.994-1.959 1.593q-.73.899-.761 2.192c-.041 1.045.294 1.908 1.025 2.588.731.69 1.664 1.025 2.791 1.025 1.197 0 2.263-.233 3.207-.71s1.644-.954 2.111-1.442c.02.528.223 1.025.619 1.482s.913.68 1.573.68c.71 0 1.36-.213 1.938-.65a20 20 0 0 0 1.614-1.339l-.233-1.096c-1.015.71-1.726 1.005-2.111.893q-.579-.167-.579-1.888v-8.961c0-1.259-.416-2.233-1.258-2.903-.843-.68-1.858-1.015-3.055-1.015-.619 0-1.167.092-1.644.285s-1.076.477-1.807.882zm4.912 11.783c-.446.487-1.015.944-1.705 1.38-.7.437-1.39.65-2.07.65-.802 0-1.401-.152-1.827-.467-.416-.315-.629-.944-.629-1.888s.487-1.695 1.461-2.303c.975-.61 2.568-1.188 4.78-1.746v4.384zm18.33-12.829a8.6 8.6 0 0 0-1.726-.151 7.8 7.8 0 0 0-3.369.75 8.7 8.7 0 0 0-2.74 2.01 8.6 8.6 0 0 0-1.858 2.893 9.1 9.1 0 0 0-.659 3.45c0 1.015.162 2 .477 2.943a7.8 7.8 0 0 0 1.38 2.507 6.8 6.8 0 0 0 2.162 1.756c.842.436 1.786.66 2.821.66a7.7 7.7 0 0 0 2.893-.549c.933-.365 1.644-.801 2.161-1.309v1.563c0 .203.122.355.366.467.243.112.527.081.862-.101.619-.285 1.33-.579 2.142-.883s1.42-.518 1.847-.65v-.994c-.995.07-1.634.04-1.929-.082-.284-.121-.436-.517-.436-1.177V69.91c0-.507.02-1.136.051-1.877q.045-1.11.152-2.01h-1.228a6.9 6.9 0 0 1-1.847 1.147c-.7.295-1.411.518-2.141.65v.994c.487 0 .872.02 1.156.051.285.03.508.132.66.284.132.153.223.396.264.71.041.326.071.762.071 1.31v6.14a6.5 6.5 0 0 0-1.522-.548zm1.522 12.504c0 .285-.142.569-.436.833-.295.263-.63.497-1.026.7a5.6 5.6 0 0 1-1.177.467c-.406.111-.72.162-.944.162-1.634 0-2.943-.589-3.917-1.756s-1.462-2.7-1.462-4.577c0-1.147.153-2.162.467-3.034.315-.873.721-1.614 1.228-2.213q.762-.868 1.705-1.309a4.5 4.5 0 0 1 1.908-.447q.536 0 1.178.153a4 4 0 0 1 1.177.477c.375.243.69.568.934.964q.365.594.365 1.492v8.099zm21.353-10.361a8.2 8.2 0 0 0-2.72-1.695c-1.035-.396-2.171-.6-3.389-.6s-2.253.234-3.238.701a8.2 8.2 0 0 0-2.537 1.857c-.71.772-1.258 1.685-1.664 2.74a9.3 9.3 0 0 0-.599 3.299c0 1.279.223 2.446.66 3.481a7.9 7.9 0 0 0 1.826 2.659 7.9 7.9 0 0 0 2.71 1.675 9.3 9.3 0 0 0 3.268.578c1.147 0 2.182-.223 3.166-.68a8.2 8.2 0 0 0 2.578-1.847c.731-.771 1.309-1.685 1.746-2.72a8.5 8.5 0 0 0 .649-3.319c0-1.278-.223-2.445-.659-3.48-.447-1.046-1.046-1.929-1.797-2.66zm-1.146 8.829c-.193.822-.467 1.563-.843 2.223a5.3 5.3 0 0 1-1.522 1.695c-.619.446-1.36.66-2.223.66q-1.4 0-2.375-.762a5.7 5.7 0 0 1-1.573-1.928 8.4 8.4 0 0 1-.893-2.426c-.172-.862-.264-1.644-.264-2.354 0-.751.082-1.543.254-2.355a7.2 7.2 0 0 1 .842-2.253 5.2 5.2 0 0 1 1.492-1.664c.619-.447 1.37-.66 2.253-.66s1.685.254 2.345.751a6.3 6.3 0 0 1 1.613 1.847c.396.751.701 1.563.894 2.436.203.873.294 1.695.294 2.476 0 .73-.091 1.502-.284 2.324zm11.102 4.486c-.619 0-1.147-.122-1.573-.365a3.8 3.8 0 0 1-1.117-.965 5.6 5.6 0 0 1-.7-1.36 8 8 0 0 1-.365-1.562h-1.299l.467 4.414c.619.396 1.309.7 2.06.914a8.2 8.2 0 0 0 2.253.314c1.015 0 1.908-.142 2.659-.416s1.36-.65 1.827-1.116a4.5 4.5 0 0 0 1.075-1.573 4.8 4.8 0 0 0 .345-1.807q0-1.096-.365-1.827a4.1 4.1 0 0 0-.934-1.228 5.4 5.4 0 0 0-1.278-.893c-.477-.243-.944-.487-1.411-.73a43 43 0 0 1-1.522-.731 7.6 7.6 0 0 1-1.299-.802 3.5 3.5 0 0 1-.894-.964c-.213-.355-.334-.781-.334-1.3 0-.659.263-1.187.801-1.572.538-.386 1.157-.579 1.888-.579.954 0 1.715.285 2.294.843.578.568.943 1.44 1.096 2.638h1.258l-.233-3.846c-.772-.416-1.482-.71-2.111-.863a8.2 8.2 0 0 0-1.939-.233c-.862 0-1.634.132-2.303.396-.67.264-1.249.609-1.705 1.025a4.7 4.7 0 0 0-1.066 1.492 4.2 4.2 0 0 0-.365 1.694c0 1.147.395 2.111 1.177 2.873q1.172 1.138 3.075 2.11c.467.244.893.478 1.299.711a7 7 0 0 1 1.066.751q.426.396.7.913c.172.345.264.751.264 1.208 0 .599-.203 1.147-.599 1.665q-.594.76-2.192.76zm-23.728-39.966a6.76 6.76 0 0 0-1.33 3.217c-.162 1.167.061 2.405.65 3.704.487 1.035 1.269 1.827 2.334 2.385 1.066.559 2.253.883 3.573.975 1.319.101 2.669-.02 4.079-.356a13.1 13.1 0 0 0 3.877-1.623 16.7 16.7 0 0 0 2.771 2.831c1.005.802 2.101 1.279 3.308 1.451 1.36.193 2.568-.03 3.654-.68 1.076-.65 1.898-1.603 2.466-2.882l-1.471-.578c-.68.984-1.421 1.644-2.233 1.979-.802.335-1.593.446-2.365.314-.619-.101-1.289-.507-1.989-1.218-.71-.72-1.411-1.583-2.111-2.608 1.604-1.32 2.913-2.628 3.948-3.927a26.7 26.7 0 0 0 2.71-4.06c.203-.355.375-.63.558-.802a1.25 1.25 0 0 1 .639-.355c.244-.06.558-.081.964-.06.386.02.924.05 1.604.09l.193-1.207-8.485-1.35-.203 1.269c.325.05.65.111.944.162a3 3 0 0 1 .751.233.9.9 0 0 1 .437.437c.091.182.111.436.04.74a8.6 8.6 0 0 1-.771 1.807q-.532.96-1.248 1.918a26 26 0 0 1-1.523 1.858 22 22 0 0 1-1.613 1.623c-.386-.65-.762-1.309-1.096-1.969s-.66-1.299-.944-1.938a39 39 0 0 1-1.005-2.344 26 26 0 0 1-.863-2.598 34 34 0 0 0 3.177-.965 12.3 12.3 0 0 0 2.486-1.207c.721-.457 1.279-.985 1.705-1.594.427-.599.711-1.33.843-2.172.111-.71.081-1.37-.112-1.979a4.4 4.4 0 0 0-.903-1.613c-.416-.467-.934-.853-1.563-1.177a7.2 7.2 0 0 0-2.121-.66c-.934-.152-1.797-.112-2.578.122a5.6 5.6 0 0 0-2.06 1.065 6.2 6.2 0 0 0-1.462 1.766 7.1 7.1 0 0 0-.791 2.192 9.4 9.4 0 0 0-.122 2.639q.122 1.386.487 2.74c-1.603.447-3.014 1.045-4.262 1.797-1.249.75-2.243 1.603-2.984 2.577zm9.55-9.439c.233-1.492.761-2.588 1.573-3.308.812-.73 1.675-1.015 2.608-.863.356.061.68.183 1.005.365.315.183.579.437.802.741.223.305.386.67.467 1.096.091.427.101.904.02 1.431-.193 1.198-.863 2.193-1.999 2.974-1.147.782-2.538 1.42-4.182 1.908a15 15 0 0 1-.365-2.344q-.076-1.098.061-2zm-4.729 8.038a12.4 12.4 0 0 1 2.852-1.4c.294.842.608 1.664.933 2.466q.487 1.203.914 2.192c.335.761.72 1.563 1.146 2.415.437.863.924 1.705 1.442 2.538-1.046.66-2.071 1.126-3.106 1.42-1.025.295-1.999.406-2.882.335-.893-.06-1.675-.284-2.355-.68-.68-.395-1.167-.954-1.492-1.694q-.703-1.584-.538-2.984a5.8 5.8 0 0 1 .985-2.578q.792-1.172 2.101-2.04zM174.789 1H1.071v2.801H174.79zm-.071 98.16H1v2.801h173.718z"/></svg>