<svg xmlns="http://www.w3.org/2000/svg" width="210" height="123" fill="none" viewBox="0 0 210 123"><path fill="#E5E9E5" stroke="#E5E9E5" stroke-miterlimit="10" d="M8.176 36.322v1.873h15.046v-1.873h-7.25v-9.865h7.761c2.676 0 4.817-.62 6.434-1.873 1.606-1.252 2.42-3.09 2.42-5.534s-.802-4.33-2.42-5.57c-1.605-1.254-3.758-1.874-6.434-1.874H8.25v1.873h3.82v22.843zM15.973 13.6h6.47c1.923 0 3.443.45 4.562 1.362q1.678 1.37 1.678 4.087c0 1.812-.559 3.138-1.678 4.05-1.119.913-2.64 1.363-4.561 1.363h-6.471V13.589zm33.887 5.79c-1.314-.765-2.944-1.155-4.89-1.155-1.849 0-3.478.402-4.914 1.192-1.435.791-2.542 1.947-3.357 3.467q-1.203 2.28-1.204 5.51c0 2.153.402 3.953 1.204 5.461q1.205 2.262 3.357 3.467c1.436.802 3.066 1.204 4.914 1.204 1.484 0 2.773-.231 3.856-.706 1.095-.462 1.995-1.082 2.712-1.849a8.1 8.1 0 0 0 1.643-2.59 8.5 8.5 0 0 0 .608-2.883h-1.752a7.4 7.4 0 0 1-.815 2.494c-.438.827-1.095 1.52-1.97 2.067-.876.548-1.983.815-3.333.815-2.056 0-3.673-.693-4.877-2.068q-1.788-2.062-1.788-5.728v-.195h14.608v-.584c0-1.788-.34-3.37-1.01-4.731-.681-1.363-1.666-2.433-2.98-3.2zm-10.497 6.727c.11-.973.304-1.824.596-2.554.474-1.18 1.155-2.068 2.031-2.652s1.886-.876 3.065-.876 2.056.256 2.81.779 1.326 1.24 1.715 2.165q.584 1.386.62 3.138zm16.785 10.205v1.873H66.67v-1.873h-3.236V11.618h-7.006v1.874H59.7v22.83zm11.738 0v1.873h10.52v-1.873h-3.235V11.618h-7.018v1.874h3.272v22.83zm11.762 0v1.873h10.606v-1.873h-3.236V18.588h-6.981v1.873h3.284v15.861zm7.006-21.176c.426-.426.645-1.01.645-1.74s-.22-1.265-.645-1.69-.997-.645-1.69-.645c-.694 0-1.266.219-1.691.645-.426.425-.645.997-.645 1.69 0 .694.219 1.302.645 1.74.425.425.997.644 1.69.644.694 0 1.265-.219 1.691-.644Zm6.094 23.049h16.675V30.4h-2.031v2.882c0 1.12-.17 1.886-.523 2.324-.353.425-1.082.644-2.201.644h-7.323l12.2-15.982v-1.679H93.599v7.444h1.983v-2.53q0-1.715.547-2.335c.365-.414 1.095-.62 2.177-.62h6.593l-12.164 15.98v1.678zm20.738 0h16.676V30.4h-2.032v2.882c0 1.12-.17 1.886-.523 2.324-.352.425-1.082.644-2.201.644h-7.322l12.199-15.982v-1.679h-15.946v7.444h1.983v-2.53q0-1.715.547-2.335c.365-.414 1.095-.62 2.177-.62h6.593L113.474 36.53v1.678zm34.933-18.805c-1.314-.765-2.944-1.155-4.89-1.155-1.849 0-3.479.402-4.914 1.192-1.435.791-2.542 1.947-3.357 3.467q-1.204 2.28-1.204 5.51c0 2.153.401 3.953 1.204 5.461q1.204 2.262 3.357 3.467c1.435.802 3.065 1.204 4.914 1.204 1.484 0 2.773-.231 3.856-.706 1.094-.462 1.994-1.082 2.712-1.849a8.1 8.1 0 0 0 1.642-2.59c.377-.961.584-1.922.608-2.883h-1.751a7.4 7.4 0 0 1-.815 2.494c-.438.827-1.095 1.52-1.971 2.067-.875.548-1.982.815-3.332.815-2.056 0-3.674-.693-4.878-2.068q-1.788-2.062-1.788-5.728v-.195h14.608v-.584c0-1.788-.34-3.37-1.009-4.731-.681-1.363-1.667-2.433-2.98-3.2zm-10.497 6.727c.109-.973.304-1.824.596-2.554.474-1.18 1.155-2.068 2.031-2.652s1.885-.876 3.065-.876 2.056.256 2.81.779 1.326 1.24 1.715 2.165q.584 1.386.62 3.138zm22.441-13.015v1.557c0 .961-.134 1.752-.389 2.36-.256.608-.706 1.058-1.35 1.326-.633.267-1.497.413-2.591.413h-1.752v1.837h4.914l-.267 11.3c-.11 2.104.316 3.746 1.252 4.926.937 1.18 2.348 1.776 4.245 1.776s3.236-.536 4.172-1.594c.937-1.07 1.399-2.53 1.399-4.403v-6.593h-2.104v6.435q0 1.678-.62 2.554c-.414.584-1.083.876-1.983.876s-1.593-.304-2.043-.9-.682-1.448-.682-2.53V20.595h8.612v-1.983h-8.612v-5.497h-2.177zm18.403 0v1.557c0 .961-.134 1.752-.39 2.36-.255.608-.705 1.058-1.35 1.326-.632.267-1.496.413-2.59.413h-1.752v1.837h4.914l-.268 11.3c-.109 2.104.317 3.746 1.253 4.926.937 1.18 2.348 1.776 4.245 1.776s3.236-.536 4.172-1.594c.937-1.07 1.399-2.53 1.399-4.403v-6.593h-2.104v6.435q0 1.678-.621 2.554c-.413.584-1.082.876-1.982.876s-1.594-.304-2.044-.9-.681-1.448-.681-2.53V20.595h8.612v-1.983h-8.612v-5.497h-2.177zm19.778 2.044c.425-.426.644-1.01.644-1.74s-.219-1.265-.644-1.69-.998-.645-1.691-.645-1.265.219-1.691.645c-.425.425-.644.997-.644 1.69 0 .694.219 1.302.644 1.74.426.425.998.644 1.691.644s1.265-.219 1.691-.644Zm-7.007 21.176v1.873h10.606v-1.873h-3.235V18.588h-6.982v1.873h3.284v15.861zM8.055 47.5H10.9l8.307 24.825h2.956l5.778-17.332 5.801 17.332h3.005l8.26-24.825h2.846v-1.873h-9.901V47.5h4.72l-6.715 20.288-6.58-20.288h4.756v-1.873H22.602V47.5h2.834l1.447 4.306-5.351 16.104-6.617-20.41h4.172v-1.873H8.055zm44.76 6.933c-.742.754-1.107 1.727-1.107 2.92 0 .802.244 1.422.718 1.848a2.47 2.47 0 0 0 1.69.645c.645 0 1.193-.158 1.558-.487q.547-.492.547-1.35c0-.645-.255-1.119-.778-1.399-.438-.243-1.01-.352-1.655-.389.146-.34.353-.632.608-.888.5-.499 1.12-.864 1.886-1.107a8 8 0 0 1 2.432-.365c1.46 0 2.543.317 3.272.937q1.095.93 1.095 2.773v.073q0 1.059-.474 1.679c-.317.413-.755.742-1.326.973s-1.265.45-2.068.669l-3.15.742q-1.716.438-3.065 1.13c-.9.463-1.594 1.071-2.08 1.813-.499.742-.742 1.679-.742 2.822 0 1.533.547 2.773 1.654 3.698 1.107.936 2.59 1.398 4.464 1.398 1.533 0 2.87-.304 3.99-.912 1.13-.608 1.994-1.569 2.614-2.87.22-.475.39-1.022.524-1.594v.779c0 1.46.352 2.59 1.046 3.393.705.803 1.751 1.204 3.162 1.204s2.53-.413 3.236-1.252c.705-.827 1.046-1.959 1.046-3.394v-8.064h-1.983v8.222c0 .572-.146 1.046-.426 1.423-.292.377-.718.56-1.29.56-.57 0-.96-.183-1.252-.56s-.426-.851-.426-1.423V58.07c0-1.995-.608-3.479-1.812-4.44-1.204-.96-2.943-1.447-5.206-1.447-1.35 0-2.627.194-3.82.56-1.191.376-2.164.936-2.906 1.69zm10.23 9.123c0 1.556-.244 2.81-.742 3.758-.5.949-1.144 1.642-1.947 2.068a5.6 5.6 0 0 1-2.651.644q-1.642 0-2.664-.875c-.693-.584-1.034-1.4-1.034-2.433 0-.706.146-1.29.45-1.776a3.6 3.6 0 0 1 1.302-1.204c.571-.328 1.277-.608 2.104-.84l1.837-.462c.985-.28 1.739-.583 2.262-.9q.785-.474 1.095-1.204v3.236zM74.004 47.5h3.272v22.843h-3.552v1.873h10.533v-1.873h-3.235V45.627h-7.018zm10.983-1.873v1.837h3.2v24.752h3.466v-4.61s.036.122.06.182c.584 1.52 1.472 2.7 2.652 3.552 1.18.84 2.652 1.265 4.428 1.265s3.174-.401 4.439-1.192c1.277-.79 2.263-1.946 2.98-3.466s1.071-3.358 1.071-5.51c0-2.153-.353-4.063-1.071-5.571-.717-1.508-1.703-2.652-2.98-3.455-1.277-.79-2.737-1.192-4.403-1.192-1.788 0-3.26.414-4.403 1.253-1.107.803-1.934 1.946-2.493 3.394V45.639h-6.934zm7.444 12.419c.499-1.204 1.18-2.129 2.044-2.75.875-.62 1.885-.936 3.053-.936s2.14.316 3.004.937c.864.62 1.52 1.545 2.007 2.749.474 1.204.717 2.663.717 4.378s-.243 3.126-.717 4.33c-.487 1.192-1.156 2.117-2.007 2.75-.852.632-1.861.948-3.004.948s-2.19-.316-3.053-.949c-.876-.632-1.557-1.556-2.044-2.749-.498-1.192-.742-2.639-.742-4.33 0-1.69.244-3.174.742-4.378Zm19.486-1.132q-1.205 2.28-1.205 5.51c0 2.153.402 3.953 1.205 5.462q1.203 2.262 3.357 3.466c1.435.803 3.065 1.204 4.914 1.204 1.483 0 2.773-.23 3.855-.705 1.095-.462 1.995-1.083 2.713-1.849a8.1 8.1 0 0 0 1.642-2.59c.377-.962.584-1.923.608-2.884h-1.752a7.4 7.4 0 0 1-.815 2.494c-.437.827-1.094 1.52-1.97 2.068-.876.547-1.983.815-3.333.815-2.055 0-3.673-.694-4.877-2.068q-1.788-2.061-1.788-5.729v-.195h14.608v-.583c0-1.788-.341-3.37-1.01-4.732-.681-1.362-1.666-2.433-2.98-3.199-1.313-.766-2.943-1.155-4.889-1.155-1.849 0-3.479.401-4.914 1.192s-2.542 1.946-3.357 3.466zm3.259.657c.475-1.18 1.156-2.068 2.032-2.651.875-.584 1.885-.876 3.065-.876s2.055.255 2.809.778c.755.523 1.326 1.24 1.715 2.165q.584 1.387.621 3.138H114.58c.11-.973.304-1.824.596-2.554Zm16.239 12.772v1.873h13.367v-1.873h-5.997v-9.938c0-1.508.232-2.76.682-3.758.45-.997 1.082-1.752 1.873-2.262.79-.511 1.666-.755 2.627-.755s1.666.195 2.177.584c.207.146.353.34.487.547-.694.025-1.241.17-1.63.45-.487.353-.718.864-.718 1.545q0 .822.584 1.35c.389.353.912.523 1.557.523.754 0 1.35-.255 1.776-.754.426-.51.644-1.13.644-1.885 0-1.216-.413-2.165-1.228-2.846s-1.91-1.01-3.26-1.01-2.445.292-3.43.876-1.763 1.484-2.323 2.712a7 7 0 0 0-.17.463v-3.552h-6.629v1.873h3.272v15.861h-3.661zM7.848 111.321c.632 0 1.374 0 2.213-.025.84-.012 1.691-.024 2.567-.024s1.727 0 2.566.024c.84.012 1.57.025 2.214.025v-1.436c-1.752 0-2.761-.316-3.04-.936-.28-.621-.183-1.594.303-2.919l2.032-5.766h9.426l1.91 5.717c.267.851.45 1.545.56 2.056.109.523.084.912-.086 1.179-.158.292-.474.475-.937.572-.462.085-1.119.134-1.97.134v1.411c.632 0 1.423 0 2.347-.025.925-.024 1.898-.024 2.907-.024s1.947 0 2.883.024c.937.025 1.727.025 2.372.025v-1.387c-.693-.049-1.265-.146-1.727-.28a2.9 2.9 0 0 1-1.216-.681c-.341-.292-.645-.693-.913-1.192-.267-.498-.535-1.155-.79-1.946l-8.636-25.58h-1.557l-8.88 25.507a40 40 0 0 1-.79 1.934 4.1 4.1 0 0 1-.84 1.253 2.7 2.7 0 0 1-1.155.681c-.45.134-1.034.195-1.751.195v1.508zm13.61-24.984 4.1 12.14h-8.272zm22.832 23.986c-.743 0-1.375-.146-1.886-.438a4.5 4.5 0 0 1-1.338-1.155 6.6 6.6 0 0 1-.84-1.63 10 10 0 0 1-.437-1.873h-1.557l.56 5.291a9.3 9.3 0 0 0 2.469 1.095c.9.255 1.8.377 2.7.377 1.216 0 2.287-.171 3.187-.499s1.63-.778 2.189-1.338a5.4 5.4 0 0 0 1.29-1.885 5.8 5.8 0 0 0 .413-2.165q0-1.314-.438-2.19a4.9 4.9 0 0 0-1.12-1.471 6.5 6.5 0 0 0-1.532-1.071c-.571-.292-1.13-.584-1.69-.876a52 52 0 0 1-1.825-.875 9 9 0 0 1-1.557-.961c-.45-.34-.815-.73-1.07-1.156s-.401-.936-.401-1.557c0-.79.316-1.423.96-1.885q.95-.693 2.263-.693c1.143 0 2.055.34 2.749 1.01.693.68 1.13 1.727 1.313 3.162h1.509l-.28-4.61c-.925-.499-1.776-.852-2.53-1.034a10 10 0 0 0-2.323-.28c-1.034 0-1.959.158-2.761.475-.803.316-1.497.73-2.044 1.228a5.6 5.6 0 0 0-1.277 1.788 5 5 0 0 0-.438 2.031c0 1.375.474 2.53 1.411 3.443.937.912 2.165 1.751 3.686 2.529.56.292 1.07.572 1.556.852.487.28.9.572 1.278.9q.51.474.839 1.095c.207.413.316.9.316 1.447 0 .718-.243 1.375-.718 1.995-.474.62-1.35.912-2.627.912zm15.714 0c-.742 0-1.374-.146-1.885-.438a4.5 4.5 0 0 1-1.338-1.155 6.6 6.6 0 0 1-.84-1.63 10 10 0 0 1-.437-1.873h-1.557l.56 5.291a9.3 9.3 0 0 0 2.468 1.095c.9.255 1.8.377 2.7.377 1.217 0 2.287-.171 3.187-.499s1.63-.778 2.19-1.338a5.4 5.4 0 0 0 1.29-1.885 5.8 5.8 0 0 0 .413-2.165q0-1.314-.438-2.19a4.9 4.9 0 0 0-1.12-1.471 6.5 6.5 0 0 0-1.532-1.071 202 202 0 0 1-1.69-.876 52 52 0 0 1-1.825-.875 9 9 0 0 1-1.557-.961c-.45-.34-.815-.73-1.07-1.156s-.402-.936-.402-1.557c0-.79.317-1.423.961-1.885q.95-.693 2.263-.693c1.143 0 2.055.34 2.749 1.01.693.68 1.13 1.727 1.313 3.162h1.508l-.28-4.61c-.924-.499-1.775-.852-2.53-1.034a10 10 0 0 0-2.322-.28c-1.034 0-1.959.158-2.761.475-.816.316-1.497.73-2.044 1.228a5.6 5.6 0 0 0-1.277 1.788 5 5 0 0 0-.438 2.031c0 1.375.474 2.53 1.411 3.443.937.912 2.165 1.751 3.685 2.529.56.292 1.07.572 1.557.852s.9.572 1.278.9q.51.474.839 1.095c.206.413.316.9.316 1.447 0 .718-.243 1.375-.718 1.995-.474.62-1.35.912-2.627.912zm23.402-17.989c-1.253-.475-2.603-.718-4.062-.718s-2.7.28-3.88.84a9.8 9.8 0 0 0-3.041 2.225c-.852.925-1.508 2.02-1.995 3.284a11.2 11.2 0 0 0-.718 3.953c0 1.533.268 2.932.791 4.172.535 1.253 1.265 2.311 2.19 3.187a9.5 9.5 0 0 0 3.247 2.007c1.24.462 2.542.693 3.917.693s2.615-.267 3.794-.814a9.9 9.9 0 0 0 3.09-2.214c.876-.925 1.57-2.019 2.092-3.26.523-1.253.778-2.579.778-3.977 0-1.533-.267-2.932-.79-4.172-.535-1.253-1.253-2.311-2.153-3.187a9.8 9.8 0 0 0-3.26-2.031zm1.886 12.613c-.231.985-.56 1.873-1.01 2.664a6.4 6.4 0 0 1-1.825 2.031c-.741.535-1.63.791-2.663.791q-1.68 0-2.846-.912a6.8 6.8 0 0 1-1.886-2.312c-.498-.9-.863-1.873-1.07-2.907-.207-1.033-.316-1.97-.316-2.821 0-.9.097-1.85.304-2.822a8.7 8.7 0 0 1 1.01-2.7 6.2 6.2 0 0 1 1.787-1.995c.742-.535 1.642-.79 2.7-.79s2.02.303 2.81.9a7.5 7.5 0 0 1 1.934 2.213c.475.9.84 1.873 1.07 2.92.232 1.045.353 2.03.353 2.967 0 .876-.11 1.8-.34 2.785zm11.846-8.916a6.2 6.2 0 0 1 1.715-1.91 3.97 3.97 0 0 1 2.384-.753c1.034 0 1.849.158 2.433.474s1.01.73 1.277 1.228c.316.633.645 1.059.973 1.253a2.1 2.1 0 0 0 1.095.304c.474 0 .851-.182 1.119-.56q.402-.564.401-1.313c0-.584-.194-1.07-.571-1.472a4.3 4.3 0 0 0-1.411-.96 8.4 8.4 0 0 0-1.825-.535 10.4 10.4 0 0 0-1.873-.183q-2.262 0-4.196.876c-1.29.584-2.384 1.362-3.284 2.347a10.8 10.8 0 0 0-2.165 3.564c-.523 1.362-.779 2.846-.779 4.44 0 1.167.231 2.299.681 3.381a10.7 10.7 0 0 0 1.825 2.944 9.1 9.1 0 0 0 2.663 2.043c1.01.523 2.08.778 3.224.778a9.1 9.1 0 0 0 4.598-1.228c1.423-.827 2.688-1.946 3.794-3.381l-1.119-.876a12 12 0 0 1-2.444 1.873c-.913.535-1.922.791-3.005.791-1.167 0-2.177-.232-3.028-.682a6.5 6.5 0 0 1-2.153-1.824 7.8 7.8 0 0 1-1.29-2.627 11.3 11.3 0 0 1-.413-3.102c0-.742.11-1.557.34-2.445.232-.888.572-1.703 1.059-2.445zm16.214 13.453c-.304.268-1.07.401-2.287.401v1.436q1.077 0 2.226-.037a75 75 0 0 1 2.348-.036c.34 0 .705 0 1.095.024.389.024.766.024 1.131.024q.566.037 1.094.037h1.095v-1.435q-1.916 0-2.372-.402c-.304-.267-.462-.936-.462-2.031V96.323c0-.632.012-1.398.037-2.262s.085-1.666.158-2.384h-1.472a7 7 0 0 1-2.068 1.277c-.742.292-1.532.499-2.384.633v1.228c1.058 0 1.715.183 1.946.535s.353 1.192.353 2.482v9.633c0 1.082-.158 1.764-.462 2.031zm3.771-24.29a2.3 2.3 0 0 0 .742-1.727c0-.681-.244-1.229-.742-1.715-.499-.487-1.071-.718-1.727-.718s-1.265.243-1.728.718a2.37 2.37 0 0 0-.693 1.715c0 .669.231 1.265.693 1.727.463.462 1.046.693 1.728.693s1.24-.23 1.727-.693Zm10.411 7.857c-1.642.876-2.797 1.642-3.466 2.287s-.998 1.362-.998 2.129c0 .474.11.863.317 1.18.206.304.596.462 1.155.462.56 0 .997-.17 1.338-.523s.499-.852.499-1.508c.024-.876.389-1.594 1.07-2.153.693-.56 1.508-.84 2.469-.84 1.302 0 2.214.329 2.725.998s.778 1.557.778 2.663v2.591q-2.226.675-4.196 1.314c-1.314.426-2.457.912-3.442 1.472s-1.764 1.192-2.348 1.909q-.876 1.077-.912 2.628c-.049 1.252.353 2.286 1.228 3.101.876.827 1.995 1.229 3.345 1.229 1.436 0 2.713-.28 3.844-.852 1.131-.571 1.97-1.143 2.53-1.727.024.632.267 1.228.742 1.776.474.547 1.095.815 1.885.815.852 0 1.63-.256 2.323-.779a24 24 0 0 0 1.934-1.605l-.279-1.314c-1.217.852-2.068 1.204-2.53 1.071q-.694-.2-.694-2.263v-10.74c0-1.508-.498-2.676-1.508-3.479-1.01-.815-2.226-1.216-3.661-1.216-.742 0-1.399.11-1.971.34a20 20 0 0 0-2.165 1.059zm5.887 14.122c-.535.584-1.216 1.131-2.043 1.654-.839.523-1.667.779-2.481.779-.961 0-1.679-.183-2.19-.56-.499-.377-.754-1.131-.754-2.262s.584-2.032 1.752-2.761c1.167-.73 3.077-1.423 5.728-2.092v5.254zm21.967-15.374c-.584-.122-1.277-.183-2.068-.183a9.3 9.3 0 0 0-4.038.9 10.4 10.4 0 0 0-3.284 2.409 10.3 10.3 0 0 0-2.226 3.466 10.9 10.9 0 0 0-.791 4.136c0 1.216.195 2.396.572 3.527a9.4 9.4 0 0 0 1.654 3.004 8.2 8.2 0 0 0 2.591 2.105c1.01.523 2.141.79 3.381.79a9.3 9.3 0 0 0 3.467-.657c1.119-.438 1.97-.961 2.591-1.569v1.873c0 .244.146.426.438.56s.632.097 1.034-.122a39 39 0 0 1 2.566-1.058 43 43 0 0 1 2.214-.778v-1.192c-1.192.085-1.959.048-2.311-.098-.341-.146-.523-.62-.523-1.411V83.588c0-.608.024-1.362.06-2.25q.056-1.332.183-2.408h-1.472c-.632.56-1.374 1.01-2.214 1.374-.839.353-1.69.62-2.566.779v1.192a14 14 0 0 1 1.387.06c.34.037.608.159.79.341.158.183.268.475.316.852.049.389.086.912.086 1.569v7.359a7.7 7.7 0 0 0-1.825-.657zm1.824 14.985c0 .34-.17.681-.523.997a5.7 5.7 0 0 1-1.228.839 6.7 6.7 0 0 1-1.411.56c-.487.134-.864.195-1.131.195-1.958 0-3.528-.706-4.695-2.105-1.168-1.398-1.752-3.235-1.752-5.485 0-1.375.183-2.591.56-3.637s.863-1.934 1.472-2.652q.912-1.04 2.043-1.569c.754-.353 1.52-.535 2.287-.535.425 0 .9.06 1.411.183.523.121.985.316 1.411.571.45.292.827.681 1.119 1.156q.437.711.437 1.788v9.706zm25.592-12.419a9.8 9.8 0 0 0-3.26-2.031c-1.24-.475-2.602-.718-4.062-.718s-2.7.28-3.88.84a9.8 9.8 0 0 0-3.041 2.225c-.851.925-1.508 2.02-1.995 3.284a11.2 11.2 0 0 0-.717 3.953c0 1.533.267 2.932.79 4.172.535 1.253 1.265 2.311 2.19 3.187a9.5 9.5 0 0 0 3.247 2.007c1.241.462 2.542.693 3.917.693s2.615-.267 3.795-.814a9.9 9.9 0 0 0 3.089-2.214c.876-.925 1.569-2.019 2.092-3.26.523-1.253.779-2.579.779-3.977 0-1.533-.268-2.932-.791-4.172-.535-1.253-1.253-2.311-2.153-3.187zm-1.374 10.582c-.231.985-.56 1.873-1.01 2.664a6.4 6.4 0 0 1-1.824 2.031c-.742.535-1.63.791-2.664.791q-1.679 0-2.846-.912a6.8 6.8 0 0 1-1.886-2.312c-.498-.9-.863-1.873-1.07-2.907-.207-1.033-.316-1.97-.316-2.821 0-.9.097-1.85.304-2.822a8.7 8.7 0 0 1 1.009-2.7 6.3 6.3 0 0 1 1.788-1.995c.742-.535 1.643-.79 2.701-.79s2.019.303 2.809.9a7.5 7.5 0 0 1 1.934 2.213c.475.9.84 1.873 1.071 2.92.243 1.045.352 2.03.352 2.967 0 .876-.109 1.8-.34 2.785zm13.306 5.376c-.741 0-1.374-.146-1.885-.438a4.5 4.5 0 0 1-1.338-1.155 6.7 6.7 0 0 1-.839-1.63 9.7 9.7 0 0 1-.438-1.873h-1.557l.56 5.291a9.3 9.3 0 0 0 2.469 1.095c.9.255 1.8.377 2.7.377 1.216 0 2.287-.171 3.187-.499s1.63-.778 2.189-1.338a5.4 5.4 0 0 0 1.29-1.885 5.8 5.8 0 0 0 .413-2.165q0-1.314-.438-2.19a4.9 4.9 0 0 0-1.119-1.471 6.5 6.5 0 0 0-1.532-1.071c-.572-.292-1.132-.584-1.691-.876a52 52 0 0 1-1.825-.875 9 9 0 0 1-1.556-.961c-.45-.34-.815-.73-1.071-1.156-.255-.425-.401-.936-.401-1.557 0-.79.316-1.423.961-1.885.644-.462 1.386-.693 2.262-.693 1.143 0 2.056.34 2.749 1.01.693.68 1.131 1.727 1.314 3.162h1.508l-.28-4.61c-.924-.499-1.776-.852-2.53-1.034a10 10 0 0 0-2.323-.28c-1.034 0-1.958.158-2.761.475s-1.496.73-2.044 1.228a5.6 5.6 0 0 0-1.277 1.788 5 5 0 0 0-.438 2.031c0 1.375.475 2.53 1.411 3.443.937.912 2.165 1.751 3.686 2.529.559.292 1.07.572 1.557.852.474.28.9.572 1.277.9q.51.474.839 1.095c.207.413.316.9.316 1.447 0 .718-.243 1.375-.717 1.995q-.712.912-2.628.912zm-28.437-47.898c-.876 1.167-1.411 2.457-1.594 3.855-.194 1.399.073 2.883.779 4.44.584 1.24 1.52 2.19 2.797 2.858 1.277.67 2.7 1.058 4.282 1.168 1.581.122 3.199-.024 4.889-.426a15.7 15.7 0 0 0 4.647-1.946 20 20 0 0 0 3.32 3.394c1.204.96 2.518 1.532 3.965 1.739 1.63.231 3.078-.037 4.379-.815 1.29-.778 2.275-1.922 2.956-3.454l-1.764-.694c-.815 1.18-1.703 1.97-2.676 2.372-.961.401-1.909.535-2.834.377-.742-.121-1.544-.608-2.384-1.46-.851-.863-1.69-1.897-2.53-3.125 1.922-1.582 3.491-3.15 4.732-4.707a32 32 0 0 0 3.247-4.866c.244-.425.45-.754.669-.96a1.5 1.5 0 0 1 .767-.426c.292-.073.669-.098 1.155-.073.462.024 1.107.06 1.922.11l.231-1.448-10.168-1.618-.244 1.52c.39.061.779.134 1.132.195.352.073.656.158.9.28.243.121.413.292.523.523.109.219.133.523.048.888-.194.68-.498 1.398-.924 2.165a21 21 0 0 1-1.496 2.299 32 32 0 0 1-1.825 2.225 26 26 0 0 1-1.934 1.947 41 41 0 0 1-1.313-2.36 49 49 0 0 1-1.131-2.323 46 46 0 0 1-1.205-2.81 31 31 0 0 1-1.033-3.114A41 41 0 0 0 182.391 57c1.143-.414 2.128-.9 2.98-1.448.863-.547 1.532-1.18 2.043-1.91.511-.717.851-1.593 1.01-2.602.133-.852.097-1.642-.134-2.372a5.2 5.2 0 0 0-1.083-1.934c-.498-.56-1.119-1.022-1.873-1.411a8.6 8.6 0 0 0-2.542-.79c-1.119-.183-2.153-.135-3.089.145a6.7 6.7 0 0 0-2.47 1.277 7.4 7.4 0 0 0-1.751 2.117 8.5 8.5 0 0 0-.949 2.627 11.4 11.4 0 0 0-.146 3.163q.146 1.66.584 3.284c-1.922.535-3.612 1.252-5.109 2.152s-2.688 1.922-3.576 3.09zm11.445-11.312c.28-1.788.912-3.102 1.886-3.966.973-.875 2.006-1.216 3.125-1.033.426.073.815.219 1.205.437.377.22.693.523.961.888.267.365.462.803.559 1.314.11.51.122 1.083.024 1.715-.231 1.435-1.033 2.627-2.396 3.564-1.374.936-3.041 1.703-5.011 2.287a18 18 0 0 1-.438-2.81 11 11 0 0 1 .073-2.396zm-5.668 9.633a15 15 0 0 1 3.418-1.679 65 65 0 0 0 1.119 2.956q.584 1.442 1.095 2.627a65 65 0 0 0 1.374 2.895 40 40 0 0 0 1.727 3.041c-1.252.79-2.481 1.35-3.722 1.703-1.228.353-2.396.486-3.454.401-1.07-.073-2.007-.34-2.822-.815s-1.399-1.143-1.788-2.03c-.559-1.266-.778-2.458-.644-3.577a7 7 0 0 1 1.179-3.09q.95-1.404 2.518-2.444zM209.283 1H1.085v3.357h208.198zm-.085 117.643H1V122h208.198z"/></svg>